<svg width="140" height="140" viewBox="0 0 140 140" fill="none" xmlns="http://www.w3.org/2000/svg">
<path d="M75.8333 122.5V134.167H64.1667V122.5H17.5C15.9529 122.5 14.4692 121.885 13.3752 120.791C12.2813 119.698 11.6667 118.214 11.6667 116.667V35H128.333V116.667C128.333 118.214 127.719 119.698 126.625 120.791C125.531 121.885 124.047 122.5 122.5 122.5H75.8333ZM23.3333 110.833H116.667V46.6667H23.3333V110.833ZM75.8333 58.3333H105V70H75.8333V58.3333ZM75.8333 81.6667H105V93.3333H75.8333V81.6667ZM52.5 58.3333V75.8333H70C70 79.2945 68.9737 82.678 67.0507 85.5558C65.1278 88.4337 62.3947 90.6767 59.197 92.0012C55.9993 93.3258 52.4806 93.6723 49.0859 92.9971C45.6913 92.3218 42.5731 90.6551 40.1256 88.2077C37.6782 85.7603 36.0115 82.6421 35.3363 79.2474C34.661 75.8527 35.0076 72.3341 36.3321 69.1364C37.6566 65.9387 39.8997 63.2055 42.7775 61.2826C45.6554 59.3597 49.0388 58.3333 52.5 58.3333V58.3333ZM11.6667 17.5H128.333V29.1667H11.6667V17.5Z" fill="#335FE6"/>
</svg>
