<svg width="140" height="140" viewBox="0 0 140 140" fill="none" xmlns="http://www.w3.org/2000/svg">
<path d="M99.1667 88.9347V129.021C99.1668 129.537 99.03 130.044 98.7702 130.49C98.5105 130.936 98.1371 131.305 97.6881 131.56C97.2391 131.814 96.7307 131.945 96.2147 131.938C95.6987 131.932 95.1935 131.789 94.7509 131.524L70 116.672L45.2492 131.524C44.8061 131.789 44.3005 131.932 43.784 131.938C43.2674 131.944 42.7586 131.813 42.3095 131.558C41.8603 131.303 41.487 130.933 41.2276 130.486C40.9683 130.04 40.8322 129.532 40.8334 129.016V88.9405C33.2859 82.8977 27.8017 74.6598 25.1386 65.3654C22.4754 56.0709 22.765 46.1786 25.9671 37.0558C29.1692 27.933 35.1258 20.0299 43.0138 14.4388C50.9017 8.84777 60.3315 5.84473 70 5.84473C79.6685 5.84473 89.0984 8.84777 96.9863 14.4388C104.874 20.0299 110.831 27.933 114.033 37.0558C117.235 46.1786 117.525 56.0709 114.862 65.3654C112.198 74.6598 106.714 82.8977 99.1667 88.9405V88.9347ZM52.5 95.7772V113.569L70 103.069L87.5 113.569V95.7772C81.94 98.0259 75.9976 99.1788 70 99.1722C64.0024 99.1788 58.0601 98.0259 52.5 95.7772ZM70 87.5055C79.2826 87.5055 88.185 83.8181 94.7488 77.2543C101.313 70.6905 105 61.7881 105 52.5055C105 43.223 101.313 34.3206 94.7488 27.7568C88.185 21.193 79.2826 17.5055 70 17.5055C60.7175 17.5055 51.8151 21.193 45.2513 27.7568C38.6875 34.3206 35 43.223 35 52.5055C35 61.7881 38.6875 70.6905 45.2513 77.2543C51.8151 83.8181 60.7175 87.5055 70 87.5055Z" fill="#335FE6"/>
<path fill-rule="evenodd" clip-rule="evenodd" d="M70 64.1722C76.4434 64.1722 81.6667 58.9489 81.6667 52.5055C81.6667 46.0622 76.4434 40.8389 70 40.8389C63.5567 40.8389 58.3334 46.0622 58.3334 52.5055C58.3334 58.9489 63.5567 64.1722 70 64.1722ZM70 75.8389C82.8867 75.8389 93.3334 65.3922 93.3334 52.5055C93.3334 39.6189 82.8867 29.1722 70 29.1722C57.1134 29.1722 46.6667 39.6189 46.6667 52.5055C46.6667 65.3922 57.1134 75.8389 70 75.8389Z" fill="#335FE6"/>
</svg>
