<svg width="140" height="140" viewBox="0 0 140 140" fill="none" xmlns="http://www.w3.org/2000/svg">
<path d="M95.2593 78.75C100.117 74.9322 104.043 70.0602 106.742 64.502C109.44 58.9439 110.839 52.8451 110.834 46.6667H122.501C122.507 54.8942 120.576 63.0075 116.865 70.3505C113.154 77.6936 107.767 84.06 101.139 88.935L115.886 114.473C117.433 117.153 117.852 120.337 117.051 123.326C116.251 126.315 114.295 128.863 111.616 130.41L91.0418 94.78C84.4073 97.6825 77.2425 99.1762 70.0009 99.1667C62.7593 99.1762 55.5946 97.6825 48.9601 94.78L28.3859 130.41C25.7064 128.863 23.7512 126.315 22.9504 123.326C22.1497 120.337 22.5689 117.153 24.1159 114.473L53.6501 63.315C50.7041 60.4184 48.5795 56.7918 47.4934 52.8056C46.4073 48.8194 46.3985 44.6164 47.4679 40.6257C48.5374 36.635 50.6468 32.9996 53.5807 30.0907C56.5146 27.1818 60.1679 25.1036 64.1676 24.0683V11.6667H75.8343V24.0683C79.834 25.1036 83.4873 27.1818 86.4212 30.0907C89.3551 32.9996 91.4645 36.635 92.5339 40.6257C93.6034 44.6164 93.5946 48.8194 92.5085 52.8056C91.4223 56.7918 89.2978 60.4184 86.3518 63.315L95.2593 78.75ZM85.1676 84.595L76.2543 69.1542C72.1665 70.2889 67.847 70.2889 63.7593 69.1542L54.8459 84.595C59.5359 86.4675 64.6459 87.5 70.0068 87.5C75.3618 87.5 80.4776 86.4675 85.1676 84.595ZM70.0009 58.3333C73.0951 58.3333 76.0626 57.1042 78.2505 54.9162C80.4384 52.7283 81.6676 49.7609 81.6676 46.6667C81.6676 43.5725 80.4384 40.605 78.2505 38.4171C76.0626 36.2292 73.0951 35 70.0009 35C66.9067 35 63.9393 36.2292 61.7514 38.4171C59.5634 40.605 58.3343 43.5725 58.3343 46.6667C58.3343 49.7609 59.5634 52.7283 61.7514 54.9162C63.9393 57.1042 66.9067 58.3333 70.0009 58.3333Z" fill="#335FE6"/>
</svg>
