<svg width="140" height="140" viewBox="0 0 140 140" fill="none" xmlns="http://www.w3.org/2000/svg">
<path d="M17.5 17.5H122.5C124.047 17.5 125.531 18.1146 126.625 19.2085C127.719 20.3025 128.333 21.7862 128.333 23.3333V116.667C128.333 118.214 127.719 119.698 126.625 120.791C125.531 121.885 124.047 122.5 122.5 122.5H17.5C15.9529 122.5 14.4692 121.885 13.3752 120.791C12.2813 119.698 11.6667 118.214 11.6667 116.667V23.3333C11.6667 21.7862 12.2813 20.3025 13.3752 19.2085C14.4692 18.1146 15.9529 17.5 17.5 17.5V17.5ZM23.3334 29.1667V110.833H116.667V29.1667H23.3334ZM116.667 70L96.04 90.6267L87.7917 82.3725L100.17 70L87.7917 57.6275L96.04 49.3733L116.667 70ZM39.83 70L52.2084 82.3725L43.96 90.6267L23.3334 70L43.96 49.3733L52.2084 57.6333L39.83 70ZM65.59 99.1667H53.1767L74.41 40.8333H86.8234L65.59 99.1667Z" fill="#335FE6"/>
</svg>
