<svg width="140" height="140" viewBox="0 0 140 140" fill="none" xmlns="http://www.w3.org/2000/svg">
<g clip-path="url(#clip0_132_65)">
<path d="M58.1753 104.999H81.8236C82.5936 97.9878 86.1694 92.2011 91.9736 85.8836C92.6328 85.1719 96.8269 80.8261 97.3228 80.2078C101.443 75.0606 104.025 68.8544 104.773 62.3039C105.52 55.7534 104.402 49.125 101.548 43.1821C98.693 37.2391 94.2179 32.2232 88.6376 28.7121C83.0573 25.201 76.5987 23.3374 70.0057 23.336C63.4127 23.3346 56.9534 25.1954 51.3716 28.7042C45.7898 32.2129 41.3126 37.2268 38.4555 43.1686C35.5984 49.1104 34.4776 55.7383 35.2222 62.2891C35.9669 68.8399 38.5466 75.0472 42.6644 80.1961C43.1661 80.8203 47.3719 85.1719 48.0194 85.8778C53.8294 92.2011 57.4053 97.9878 58.1753 104.999V104.999ZM81.6661 116.666H58.3328V122.499H81.6661V116.666ZM33.5644 87.4994C28.0706 80.6353 24.6275 72.3588 23.6318 63.6234C22.6362 54.888 24.1284 46.049 27.9368 38.1246C31.7451 30.2002 37.7145 23.5128 45.1573 18.8328C52.6002 14.1528 61.2138 11.6705 70.0057 11.6719C78.7977 11.6733 87.4105 14.1584 94.8519 18.8408C102.293 23.5232 108.26 30.2125 112.066 38.1381C115.872 46.0637 117.361 54.9031 116.363 63.6382C115.365 72.3734 111.919 80.6487 106.423 87.5111C102.806 92.0144 93.3328 99.1661 93.3328 107.916V122.499C93.3328 125.594 92.1036 128.561 89.9157 130.749C87.7278 132.937 84.7603 134.166 81.6661 134.166H58.3328C55.2386 134.166 52.2711 132.937 50.0832 130.749C47.8953 128.561 46.6661 125.594 46.6661 122.499V107.916C46.6661 99.1661 37.1869 92.0144 33.5644 87.4994ZM75.8328 58.3561H90.4161L64.1661 93.3561V70.0227H49.5828L75.8328 34.9994V58.3619V58.3561Z" fill="#335FE6"/>
</g>
<defs>
<clipPath id="clip0_132_65">
<rect width="140" height="140" fill="white"/>
</clipPath>
</defs>
</svg>
