<svg width="201" height="200" viewBox="0 0 201 200" fill="none" xmlns="http://www.w3.org/2000/svg">
<path d="M19.6058 170.759L40.9294 168.665V138.696H49.3813V168.657L70.7902 170.759C71.8172 170.859 72.7702 171.337 73.4639 172.101C74.1576 172.865 74.5423 173.86 74.5432 174.892V178.094H15.8606V174.892C15.8613 173.861 16.2449 172.867 16.937 172.104C17.6291 171.34 18.5802 170.861 19.6058 170.759Z" fill="#263238"/>
<path opacity="0.2" d="M19.6058 170.759L40.9294 168.665V138.696H49.3813V168.657L70.7902 170.759C71.8172 170.859 72.7702 171.337 73.4639 172.101C74.1576 172.865 74.5423 173.86 74.5432 174.892V178.094H15.8606V174.892C15.8613 173.861 16.2449 172.867 16.937 172.104C17.6291 171.34 18.5802 170.861 19.6058 170.759Z" fill="white"/>
<path d="M72.2873 187.599C75.3407 187.599 77.8159 185.124 77.8159 182.071C77.8159 179.017 75.3407 176.542 72.2873 176.542C69.2339 176.542 66.7587 179.017 66.7587 182.071C66.7587 185.124 69.2339 187.599 72.2873 187.599Z" fill="#263238"/>
<path d="M18.1181 187.599C21.1715 187.599 23.6467 185.124 23.6467 182.071C23.6467 179.017 21.1715 176.542 18.1181 176.542C15.0647 176.542 12.5895 179.017 12.5895 182.071C12.5895 185.124 15.0647 187.599 18.1181 187.599Z" fill="#263238"/>
<path d="M47.6222 145.138H42.6673C41.818 145.138 41.0034 144.801 40.4029 144.2C39.8023 143.6 39.4649 142.785 39.4649 141.936V118.449H50.8401V141.936C50.8401 142.358 50.7567 142.776 50.5948 143.165C50.4329 143.555 50.1957 143.908 49.8966 144.206C49.5976 144.504 49.2428 144.739 48.8524 144.899C48.4621 145.059 48.044 145.14 47.6222 145.138Z" fill="#263238"/>
<path opacity="0.3" d="M47.6222 145.138H42.6673C41.818 145.138 41.0034 144.801 40.4029 144.2C39.8023 143.6 39.4649 142.785 39.4649 141.936V118.449H50.8401V141.936C50.8401 142.358 50.7567 142.776 50.5948 143.165C50.4329 143.555 50.1957 143.908 49.8966 144.206C49.5976 144.504 49.2428 144.739 48.8524 144.899C48.4621 145.059 48.044 145.14 47.6222 145.138Z" fill="white"/>
<path d="M24.9486 71.616C24.9486 71.616 23.3047 111.565 34.4628 118.443H21.7539C21.7539 118.443 11.9218 104.827 14.6977 71.616H24.9486Z" fill="#263238"/>
<path opacity="0.3" d="M24.9486 71.616C24.9486 71.616 23.3047 111.565 34.4628 118.443H21.7539C21.7539 118.443 11.9218 104.827 14.6977 71.616H24.9486Z" fill="white"/>
<path d="M21.3128 112.852H70.4889C71.5172 112.852 72.5033 113.26 73.2304 113.987C73.9575 114.714 74.366 115.7 74.366 116.729V121.505H17.4358V116.729C17.4358 115.7 17.8443 114.714 18.5713 113.987C19.2984 113.26 20.2846 112.852 21.3128 112.852Z" fill="#263238"/>
<path d="M75.1875 117.178H16.6212C15.7604 117.178 15.0626 117.876 15.0626 118.737V119.946C15.0626 120.807 15.7604 121.505 16.6212 121.505H75.1875C76.0482 121.505 76.746 120.807 76.746 119.946V118.737C76.746 117.876 76.0482 117.178 75.1875 117.178Z" fill="#263238"/>
<path opacity="0.6" d="M75.1875 117.178H16.6212C15.7604 117.178 15.0626 117.876 15.0626 118.737V119.946C15.0626 120.807 15.7604 121.505 16.6212 121.505H75.1875C76.0482 121.505 76.746 120.807 76.746 119.946V118.737C76.746 117.876 76.0482 117.178 75.1875 117.178Z" fill="white"/>
<path d="M12.0925 79.718H31.4234C37.6672 79.718 42.7288 74.6564 42.7288 68.4126V61.4728C42.7288 55.229 37.6672 50.1674 31.4234 50.1674H12.0925C5.84874 50.1674 0.787151 55.229 0.787151 61.4728V68.4126C0.787151 74.6564 5.84874 79.718 12.0925 79.718Z" fill="#263238"/>
<path d="M67.6029 181.993L73.7829 181.148L74.6358 166.461L68.4714 167.322L67.6029 181.993Z" fill="#EBB376"/>
<path opacity="0.2" d="M68.4713 167.323L74.6358 166.47L74.1473 174.868L67.9906 175.403L68.4713 167.323Z" fill="black"/>
<path d="M67.8521 95.6513L66.3478 86.2146L31.7183 84.1443C31.7183 84.1443 28.0351 103.785 30.8654 109.019C35.9132 118.363 63.1377 113.672 71.1011 114.571C66.3401 134.042 66.8053 172.091 66.8053 172.091L78.1805 172.959C78.1805 172.959 86.9348 131.956 88.7027 112.478C89.8969 99.35 79.0024 99.6834 67.8521 95.6513Z" fill="#F2C94C"/>
<path d="M65.4718 172.65L79.1422 173.55L80.313 167.695L65.2935 166.998L65.4718 172.65Z" fill="#F2C94C"/>
<path d="M81.8556 176.512L88.0743 176.97L91.9669 162.787L85.7559 162.338L81.8556 176.512Z" fill="#EBB376"/>
<path d="M88.9347 177.248C88.9347 177.248 88.9347 177.248 88.9347 177.294H88.9812C89.4732 177.567 89.9932 177.785 90.532 177.946C90.9217 178.093 91.352 178.093 91.7417 177.946C91.8696 177.872 91.9741 177.764 92.0427 177.634C92.1114 177.503 92.1415 177.356 92.1294 177.209C92.1371 177.117 92.1221 177.024 92.0856 176.939C92.0491 176.853 91.9922 176.778 91.92 176.72C91.3627 176.497 90.7438 176.48 90.1754 176.674C90.6219 176.376 90.9466 175.927 91.0903 175.41C91.1013 175.288 91.0703 175.167 91.0026 175.065C90.9349 174.964 90.8346 174.888 90.7181 174.852C90.6204 174.804 90.513 174.779 90.4041 174.779C90.2952 174.779 90.1878 174.804 90.0901 174.852C89.3147 175.27 89.0433 177.007 89.02 177.1H88.9114C88.905 177.125 88.9037 177.151 88.9077 177.176C88.9117 177.202 88.9209 177.226 88.9347 177.248ZM89.4 176.899L89.2604 176.945C89.4077 176.371 89.7179 175.433 90.1754 175.193C90.2247 175.162 90.2798 175.143 90.3372 175.135C90.3946 175.127 90.453 175.131 90.5088 175.146H90.5708C90.7647 175.224 90.7957 175.34 90.7802 175.425C90.7647 175.867 89.9893 176.565 89.4 176.899ZM89.4 177.224C90.2219 176.976 91.3617 176.751 91.7262 177.015C91.7612 177.042 91.7887 177.078 91.8064 177.118C91.824 177.159 91.8311 177.204 91.827 177.248C91.8331 177.341 91.814 177.434 91.7717 177.517C91.7294 177.6 91.6655 177.671 91.5866 177.721C91.2377 177.915 90.439 177.728 89.4232 177.224H89.4Z" fill="#F2C94C"/>
<path opacity="0.2" d="M85.7558 162.338L91.9668 162.795L89.7414 170.898L83.6002 170.146L85.7558 162.338Z" fill="black"/>
<path d="M94.0764 169.897L83.1277 166.679C83.1277 166.679 89.6643 129.785 96.3096 116.991C95.8133 116.828 95.1542 116.619 94.34 116.379C92.8745 115.937 90.9283 115.386 88.6408 114.75C72.7295 110.338 40.4805 102.065 40.4805 102.065L55.2131 88.3167C55.2131 88.3167 113.896 97.2648 115.113 112.726C115.679 120.162 94.0764 169.897 94.0764 169.897Z" fill="#F2C94C"/>
<path d="M81.7162 166.927L94.8981 170.648L97.2631 165.166L82.7165 161.359L81.7162 166.927Z" fill="#F2C94C"/>
<path opacity="0.2" d="M94.3233 116.379C92.8578 115.937 90.9115 115.387 88.6241 114.751C89.0816 110.998 89.0893 106.694 87.2826 104.5C83.6925 100.127 74.4575 97.5212 69.2002 96.6295C64.8037 95.8541 50.0322 94.3033 50.0322 94.3033C50.0322 94.3033 69.2002 92.4656 88.8024 98.1803C98.5182 101.018 96.5952 110.486 94.3233 116.379Z" fill="black"/>
<path opacity="0.2" d="M65.4718 172.65L79.1422 173.55L80.313 167.695L65.2935 166.998L65.4718 172.65Z" fill="white"/>
<path opacity="0.2" d="M81.7162 166.927L94.8981 170.648L97.2631 165.166L82.7165 161.359L81.7162 166.927Z" fill="white"/>
<path d="M88.6861 176.341L81.9479 174.457C81.8358 174.422 81.7147 174.433 81.6104 174.486C81.5061 174.54 81.4269 174.632 81.3896 174.743L79.5751 179.985C79.5365 180.125 79.5259 180.27 79.5441 180.414C79.5622 180.558 79.6087 180.696 79.6808 180.822C79.753 180.947 79.8493 181.057 79.9643 181.145C80.0793 181.233 80.2105 181.298 80.3505 181.334C82.6768 181.955 83.8631 182.11 86.8329 182.932C89.4407 183.773 92.1043 184.432 94.8041 184.901C97.4017 185.196 97.6188 182.622 96.5487 182.265C94.0054 181.412 90.9658 178.768 89.6399 176.961C89.3994 176.654 89.064 176.436 88.6861 176.341Z" fill="#263238"/>
<path d="M74.3964 181.164H74.5282C74.5282 181.164 74.6678 181.21 74.6833 181.226C74.6988 181.241 74.6833 181.226 74.6833 181.265H74.7376C75.2648 181.429 75.8081 181.535 76.3581 181.583C76.7688 181.659 77.193 181.575 77.5445 181.35C77.6496 181.254 77.7262 181.131 77.7658 180.994C77.8055 180.857 77.8067 180.712 77.7694 180.575C77.7574 180.482 77.7228 180.394 77.6687 180.319C77.6146 180.243 77.5426 180.182 77.4592 180.14C76.8634 180.041 76.2515 180.153 75.7301 180.458C76.0978 180.074 76.3152 179.57 76.3426 179.039C76.3191 178.913 76.2547 178.799 76.1593 178.713C76.064 178.628 75.9431 178.576 75.8154 178.566C75.6953 178.545 75.5722 178.549 75.4536 178.577C75.335 178.605 75.2233 178.657 75.1253 178.729C74.4739 179.287 74.3499 181.055 74.3499 181.156L74.3964 181.164ZM75.071 180.807L74.9392 180.877C74.9019 180.201 75.0871 179.531 75.4664 178.969C75.5085 178.93 75.5587 178.899 75.6136 178.88C75.6684 178.862 75.7267 178.855 75.7843 178.861H75.8541C76.0557 178.9 76.11 179 76.1178 179.086C75.9782 179.763 75.6083 180.372 75.071 180.807ZM75.1563 181.11C75.9317 180.699 76.9707 180.241 77.3739 180.427C77.4152 180.445 77.4507 180.475 77.4767 180.511C77.5026 180.548 77.518 180.592 77.5213 180.637C77.5455 180.726 77.5461 180.82 77.5229 180.91C77.4998 181 77.4538 181.082 77.3894 181.148C77.0715 181.42 76.2573 181.404 75.1563 181.11Z" fill="#F2C94C"/>
<path d="M74.2494 180.405L67.2708 179.97C67.1547 179.957 67.0381 179.991 66.9465 180.063C66.855 180.136 66.7959 180.242 66.7823 180.358L66.1 185.863C66.0807 186.153 66.1767 186.439 66.3669 186.658C66.5571 186.877 66.8263 187.012 67.1157 187.034C69.5505 187.143 70.7214 187.073 73.792 187.244C76.5169 187.526 79.2584 187.614 81.9957 187.507C84.5933 187.251 84.2754 184.693 83.1588 184.568C80.4915 184.266 76.9556 182.304 75.2962 180.823C75.0033 180.572 74.6351 180.424 74.2494 180.405Z" fill="#263238"/>
<path d="M81.9722 60.4258C81.9722 60.4258 83.9262 71.0178 87.4465 73.0571C90.9669 75.0964 115.315 60.5498 115.315 60.5498L113.275 56.4402C113.275 56.4402 92.8899 61.9456 92.696 61.9766C92.5022 62.0076 91.9206 57.3242 91.9206 57.3242L81.9722 60.4258Z" fill="#263238"/>
<path d="M89.5704 43.7703C91.1755 45.7553 93.4475 60.426 93.4475 60.426L81.4907 63.2097L78.9009 55.7813L89.5704 43.7703Z" fill="#F2C94C"/>
<path opacity="0.4" d="M89.5704 43.7703C91.1755 45.7553 93.4475 60.426 93.4475 60.426L81.4907 63.2097L78.9009 55.7813L89.5704 43.7703Z" fill="white"/>
<path d="M28.2906 96.3736L68.4178 89.6974C68.4178 89.6974 70.9301 65.8614 89.5708 43.7702C89.5708 43.7702 83.0962 29.6268 60.0667 31.5886C37.0372 33.5503 28.2906 96.3736 28.2906 96.3736Z" fill="#F2C94C"/>
<path opacity="0.6" d="M28.2906 96.3736L68.4178 89.6974C68.4178 89.6974 70.9301 65.8614 89.5708 43.7702C89.5708 43.7702 83.0962 29.6268 60.0667 31.5886C37.0372 33.5503 28.2906 96.3736 28.2906 96.3736Z" fill="white"/>
<path d="M59.5238 51.8728C59.5238 51.8728 59.1206 62.8991 60.3457 63.5039C61.5709 64.1087 84.7477 55.7033 88.4231 55.0907C92.0985 54.4782 100.527 57.6961 100.527 57.6961L101.303 62.7285C101.303 62.7285 93.7967 62.5811 89.5785 60.5263C89.5785 60.5263 62.5014 76.7168 56.6703 75.794C50.8393 74.8713 48.8387 53.0049 48.8387 53.0049L59.5238 51.8728Z" fill="#EBB376"/>
<path d="M59.524 55.7817C59.524 55.7817 59.6093 62.2641 60.9585 62.7604C62.3077 63.2566 82.3597 56.1927 82.3597 56.1927L85.5311 63.5358C85.5311 63.5358 60.1909 79.8891 55.2903 75.8647C50.3898 71.8404 49.1569 57.4256 49.1569 57.4256L59.524 55.7817Z" fill="#263238"/>
<path d="M55.8714 34.0617C63.0827 33.2863 60.4774 58.8204 60.4774 58.8204L48.3578 60.5495C48.3578 60.5495 43.1703 35.3954 55.8714 34.0617Z" fill="#F2C94C"/>
<path opacity="0.4" d="M55.8714 34.0617C63.0827 33.2863 60.4774 58.8204 60.4774 58.8204L48.3578 60.5495C48.3578 60.5495 43.1703 35.3954 55.8714 34.0617Z" fill="white"/>
<path d="M67.3086 32.2156C67.3086 32.2156 67.0683 43.4279 73.9384 44.5677C80.8084 45.7076 81.5296 36.5811 81.5296 36.5811C81.5296 36.5811 76.9081 31.603 67.3086 32.2156Z" fill="#263238"/>
<path d="M84.5619 38.4194C83.3702 37.9991 82.0705 37.9991 80.8787 38.4194C80.6052 39.5864 79.9488 40.6281 79.0142 41.3786C78.0797 42.129 76.9208 42.545 75.7223 42.5601C75.1319 42.5901 74.5399 42.5641 73.9544 42.4826C67.9527 41.6606 68.6118 32.7357 68.6118 32.7357C70.8 32.8862 72.9816 32.3611 74.8616 31.2314C76.4569 30.297 77.849 29.0526 78.9557 27.5715L84.5619 38.4194Z" fill="#EBB376"/>
<path opacity="0.2" d="M84.5611 38.4194C83.3694 37.9991 82.0697 37.9991 80.8779 38.4194C80.6044 39.5864 79.948 40.6281 79.0134 41.3786C78.0789 42.129 76.92 42.545 75.7215 42.5601C74.1707 38.7374 74.3801 34.3563 74.8608 31.2314C76.4562 30.297 77.8482 29.0526 78.9549 27.5715L84.5611 38.4194Z" fill="black"/>
<path d="M89.214 21.0888C86.5389 22.9032 87.7563 25.9738 93.8044 30.7891C96.2624 27.6022 96.6657 21.4145 94.7194 19.8637C92.7731 18.3128 91.5402 19.5147 89.214 21.0888Z" fill="#263238"/>
<path d="M77.7306 26.0674C78.0175 32.6041 77.8625 36.4423 81.0959 39.8464C85.9654 44.9718 94.0762 42.1183 95.7433 35.6282C97.2398 29.7971 96.5187 20.1201 90.1759 17.3829C88.7802 16.7788 87.2532 16.5417 85.7401 16.6941C84.2269 16.8465 82.7779 17.3833 81.5308 18.2536C80.2836 19.1239 79.2797 20.2987 78.6146 21.6664C77.9495 23.034 77.6452 24.549 77.7306 26.0674Z" fill="#EBB376"/>
<path d="M87.4454 28.0286C87.4454 28.5558 87.7168 28.9901 88.058 28.9978C88.3992 29.0056 88.6938 28.5791 88.7016 28.0518C88.7093 27.5246 88.4379 27.0826 88.0968 27.0748C87.7556 27.0671 87.492 27.5013 87.4454 28.0286Z" fill="#263238"/>
<path d="M93.4866 28.1377C93.4866 28.665 93.7503 29.1069 94.0992 29.1069C94.4481 29.1069 94.735 28.696 94.7505 28.1532C94.7661 27.6104 94.4792 27.1917 94.1302 27.1839C93.7813 27.1762 93.4944 27.6027 93.4866 28.1377Z" fill="#263238"/>
<path d="M91.541 28.3547C92.145 29.9899 92.975 31.5324 94.0068 32.9374C93.6379 33.1892 93.219 33.3583 92.7787 33.4332C92.3384 33.5082 91.8871 33.4872 91.4557 33.3716L91.541 28.3547Z" fill="#D58745"/>
<path d="M96.1921 24.6333C96.1631 24.6836 96.1212 24.7251 96.0708 24.7538C96.0203 24.7824 95.9632 24.797 95.9052 24.7962C95.5142 24.7608 95.1204 24.819 94.7563 24.966C94.3923 25.1129 94.0684 25.3445 93.8116 25.6414C93.7871 25.674 93.7565 25.7014 93.7215 25.7222C93.6864 25.7429 93.6476 25.7566 93.6073 25.7623C93.567 25.7681 93.5259 25.7658 93.4865 25.7557C93.447 25.7456 93.4099 25.7278 93.3773 25.7034C93.3444 25.6802 93.3164 25.6508 93.2951 25.6167C93.2737 25.5826 93.2593 25.5446 93.2528 25.5048C93.2463 25.4651 93.2478 25.4245 93.2572 25.3854C93.2666 25.3462 93.2837 25.3094 93.3076 25.2769C93.6258 24.8966 94.0305 24.5982 94.4879 24.4066C94.9453 24.215 95.4419 24.1359 95.9362 24.1759C95.9766 24.1768 96.0164 24.1859 96.0532 24.2025C96.09 24.2191 96.1232 24.243 96.1506 24.2726C96.1781 24.3022 96.1993 24.3371 96.2131 24.3751C96.2269 24.4131 96.2329 24.4534 96.2308 24.4938C96.2301 24.5428 96.2167 24.5909 96.1921 24.6333Z" fill="#263238"/>
<path d="M89.9892 25.803C89.9331 25.8216 89.8729 25.8242 89.8153 25.8106C89.7578 25.7969 89.7052 25.7674 89.6635 25.7254C89.3966 25.4366 89.0646 25.2155 88.695 25.0807C88.3255 24.9458 87.9292 24.9011 87.5389 24.95C87.4569 24.964 87.3727 24.9461 87.3035 24.9C87.2343 24.8538 87.1854 24.783 87.1667 24.7019C87.1507 24.6217 87.1669 24.5385 87.212 24.4702C87.257 24.402 87.3271 24.3543 87.4071 24.3375C87.8979 24.2642 88.3991 24.3098 88.8687 24.4703C89.3382 24.6309 89.7624 24.9017 90.1055 25.2602C90.1611 25.3204 90.192 25.3993 90.192 25.4812C90.192 25.5631 90.1611 25.642 90.1055 25.7022L89.9892 25.803Z" fill="#263238"/>
<path d="M80.4287 20.3293C83.4605 21.4304 83.0341 24.7103 78.3429 30.8515C75.187 28.3625 73.2717 22.4617 74.7915 20.4844C76.3113 18.5071 77.7768 19.3755 80.4287 20.3293Z" fill="#263238"/>
<path d="M74.5358 31.2387C74.7467 32.0261 75.1107 32.7642 75.6069 33.4108C76.1032 34.0574 76.722 34.5999 77.4281 35.0072C79.3201 36.0773 80.7856 34.5032 80.7003 32.4484C80.615 30.5874 79.5294 27.796 77.4203 27.5633C75.3112 27.3307 74.0163 29.2847 74.5358 31.2387Z" fill="#EBB376"/>
<path d="M86.5231 34.4578C86.5231 34.4578 87.6552 36.5979 90.8189 36.4971" stroke="#263238" stroke-width="0.372614" stroke-linecap="round" stroke-linejoin="round"/>
<path d="M81.1271 22.6013C81.1271 22.6013 83.7015 22.7331 84.8878 24.3614C85.2063 23.9393 85.4288 23.4529 85.5399 22.9359C85.6511 22.419 85.6482 21.8841 85.5314 21.3684C85.5314 21.3684 88.633 21.7483 90.021 23.904C90.4079 23.1181 90.5689 22.2403 90.4863 21.3684C91.075 22.0842 91.4055 22.9774 91.4245 23.904C91.4245 23.904 93.7972 22.3997 93.4871 20.9884C94.0756 21.7075 94.5063 22.5423 94.751 23.4387C94.751 23.4387 96.3018 22.9037 95.9684 20.1432C96.4887 20.7147 96.8684 21.3997 97.0772 22.1438C97.0772 22.1438 99.1088 16.3825 91.4245 13.1646C83.7403 9.94668 74.9161 13.7617 75.0712 20.1432C75.2263 26.5248 81.1271 22.6013 81.1271 22.6013Z" fill="#263238"/>
<path d="M90.8198 29.1075C90.8198 30.7979 89.6722 32.1703 88.2687 32.1703C86.8653 32.1703 85.7099 30.7979 85.7099 29.1075C85.7099 27.4171 86.8575 26.0059 88.2687 26.0059C89.68 26.0059 90.8198 27.4171 90.8198 29.1075Z" stroke="#263238" stroke-width="0.372614" stroke-linecap="round" stroke-linejoin="round"/>
<path d="M97.806 28.9671C97.806 30.6575 96.6662 32.0688 95.2549 32.0688C93.8437 32.0688 92.6961 30.6963 92.6961 28.9671C92.6961 27.238 93.8437 25.9043 95.2549 25.9043C96.6662 25.9043 97.806 27.3078 97.806 28.9671Z" stroke="#263238" stroke-width="0.372614" stroke-linecap="round" stroke-linejoin="round"/>
<path d="M90.8197 29.1065C91.0686 28.8685 91.3941 28.7269 91.738 28.707C92.0818 28.6871 92.4215 28.7902 92.6962 28.9979" stroke="#263238" stroke-width="0.372614" stroke-linecap="round" stroke-linejoin="round"/>
<path d="M85.7088 29.1061L79.4901 28.571" stroke="#263238" stroke-width="0.372614" stroke-linecap="round" stroke-linejoin="round"/>
<path d="M143.407 60.4248V62.4796C143.407 63.0922 142.352 63.5264 141.74 63.5264H93.8664C93.2538 63.5264 92.269 63.0922 92.269 62.4796V60.4248H143.407Z" fill="#263238"/>
<path opacity="0.6" d="M143.407 60.4248V62.4796C143.407 63.0922 142.352 63.5264 141.74 63.5264H93.8664C93.2538 63.5264 92.269 63.0922 92.269 62.4796V60.4248H143.407Z" fill="white"/>
<path opacity="0.2" d="M143.408 60.4248V62.4796C143.408 63.0922 142.353 63.5264 141.741 63.5264H110.151C109.538 63.5264 108.522 63.0922 108.522 62.4796V60.4248H143.408Z" fill="black"/>
<path d="M151.091 35.2397L145.392 61.1925C145.291 61.6159 145.056 61.9955 144.722 62.2749C144.388 62.5542 143.973 62.7185 143.539 62.7433H112.375C112.176 62.7241 111.983 62.6611 111.811 62.5587C111.639 62.4563 111.492 62.3171 111.38 62.1511C111.268 61.9851 111.194 61.7963 111.164 61.5984C111.134 61.4005 111.147 61.1984 111.204 61.0064L116.904 35.325C117.02 34.9326 117.267 34.5921 117.605 34.3605C117.942 34.129 118.349 34.0205 118.757 34.0534H149.913C150.75 34.0611 151.246 34.3945 151.091 35.2397Z" fill="#263238"/>
<path opacity="0.6" d="M151.091 35.2397L145.392 61.1925C145.291 61.6159 145.056 61.9955 144.722 62.2749C144.388 62.5542 143.973 62.7185 143.539 62.7433H112.375C112.176 62.7241 111.983 62.6611 111.811 62.5587C111.639 62.4563 111.492 62.3171 111.38 62.1511C111.268 61.9851 111.194 61.7963 111.164 61.5984C111.134 61.4005 111.147 61.1984 111.204 61.0064L116.904 35.325C117.02 34.9326 117.267 34.5921 117.605 34.3605C117.942 34.129 118.349 34.0205 118.757 34.0534H149.913C150.75 34.0611 151.246 34.3945 151.091 35.2397Z" fill="white"/>
<path opacity="0.4" d="M151.092 35.2397L145.393 61.1925C145.292 61.6159 145.057 61.9955 144.723 62.2749C144.389 62.5542 143.974 62.7185 143.54 62.7433H113.438C113.238 62.7252 113.045 62.6629 112.872 62.561C112.699 62.459 112.551 62.32 112.438 62.1538C112.325 61.9877 112.251 61.7986 112.22 61.6001C112.189 61.4017 112.203 61.1989 112.26 61.0064L117.967 35.325C118.083 34.9326 118.33 34.5921 118.668 34.3605C119.005 34.129 119.412 34.0205 119.82 34.0534H149.913C150.751 34.0611 151.247 34.3945 151.092 35.2397Z" fill="white"/>
<path opacity="0.2" d="M132.761 51.8721C134.211 51.8721 135.7 50.3213 136.08 48.3983C136.46 46.4753 135.583 44.9167 134.126 44.9167C133.86 44.9224 133.597 44.9749 133.35 45.0718C133.216 45.7575 132.922 46.4019 132.492 46.9529C132.062 47.5038 131.509 47.9459 130.877 48.2432C130.86 48.2939 130.847 48.3458 130.838 48.3983C130.427 50.3136 131.303 51.8721 132.761 51.8721Z" fill="black"/>
<path d="M170.895 42.2034L178.153 49.4611L180.611 63.527H165.685L166.297 61.9762L174.478 60.4254L175.191 51.8726L169.771 50.5855L170.895 42.2034Z" fill="#263238"/>
<path opacity="0.6" d="M180.611 63.527H165.685L166.297 61.9762L174.478 60.4254L175.191 51.8726L174.486 51.7021L169.771 50.5855L170.895 42.2034L178.153 49.4611L180.611 63.527Z" fill="white"/>
<path opacity="0.2" d="M177.145 48.4531L174.485 51.7021L169.771 50.5855L170.895 42.2034L177.145 48.4531Z" fill="black"/>
<path d="M170.051 54.3855H161.715C161.635 54.3879 161.555 54.3723 161.481 54.3399C161.407 54.3075 161.342 54.2591 161.289 54.1982C161.236 54.1374 161.198 54.0656 161.176 53.988C161.155 53.9104 161.151 53.829 161.165 53.7497L165.98 17.9958C166.008 17.8109 166.102 17.6424 166.244 17.5212C166.387 17.4001 166.568 17.3346 166.755 17.3367H175.091C175.172 17.3332 175.253 17.3479 175.328 17.3797C175.402 17.4116 175.469 17.4598 175.522 17.5208C175.576 17.5818 175.615 17.6541 175.637 17.7323C175.659 17.8105 175.663 17.8926 175.649 17.9725L170.78 53.7807C170.742 53.9479 170.65 54.0979 170.518 54.2073C170.386 54.3167 170.222 54.3794 170.051 54.3855Z" fill="#263238"/>
<path opacity="0.6" d="M170.051 54.3855H161.715C161.635 54.3879 161.555 54.3723 161.481 54.3399C161.407 54.3075 161.342 54.2591 161.289 54.1982C161.236 54.1374 161.198 54.0656 161.176 53.988C161.155 53.9104 161.151 53.829 161.165 53.7497L165.98 17.9958C166.008 17.8109 166.102 17.6424 166.244 17.5212C166.387 17.4001 166.568 17.3346 166.755 17.3367H175.091C175.172 17.3332 175.253 17.3479 175.328 17.3797C175.402 17.4116 175.469 17.4598 175.522 17.5208C175.576 17.5818 175.615 17.6541 175.637 17.7323C175.659 17.8105 175.663 17.8926 175.649 17.9725L170.78 53.7807C170.742 53.9479 170.65 54.0979 170.518 54.2073C170.386 54.3167 170.222 54.3794 170.051 54.3855Z" fill="white"/>
<path opacity="0.4" d="M167.725 54.3855H161.715C161.635 54.3879 161.555 54.3723 161.481 54.3399C161.407 54.3075 161.342 54.2591 161.289 54.1982C161.236 54.1374 161.198 54.0656 161.176 53.988C161.155 53.9104 161.151 53.829 161.165 53.7497L165.98 17.9958C166.008 17.8109 166.102 17.6424 166.244 17.5212C166.387 17.4001 166.568 17.3346 166.755 17.3367H172.765C172.846 17.3332 172.927 17.3479 173.001 17.3797C173.076 17.4116 173.143 17.4598 173.196 17.5208C173.25 17.5818 173.289 17.6541 173.311 17.7323C173.333 17.8105 173.337 17.8926 173.323 17.9725L168.453 53.7807C168.416 53.9479 168.324 54.0979 168.192 54.2073C168.06 54.3167 167.896 54.3794 167.725 54.3855Z" fill="white"/>
<path d="M168.081 53.261H161.684L166.39 18.4841H172.787L168.081 53.261Z" fill="#F2C94C"/>
<path d="M112.864 187.593H108.111L99.574 68.77H105.878L112.864 187.593Z" fill="#263238"/>
<path opacity="0.4" d="M112.864 187.592H108.111L99.9927 74.6696L99.574 68.9548H105.878L106.219 74.6696L112.864 187.592Z" fill="white"/>
<path opacity="0.2" d="M106.219 74.3827H99.9927L99.574 68.9548H105.878L106.219 74.3827Z" fill="black"/>
<path d="M147.726 187.593H142.972L142.197 68.77H148.501L147.726 187.593Z" fill="#263238"/>
<path opacity="0.5" d="M148.501 68.9548L148.377 88.1306L147.726 187.592H142.972L142.321 88.1306L142.197 68.9548H148.501Z" fill="white"/>
<path opacity="0.2" d="M148.501 68.9548L148.377 88.3399H142.321L142.197 68.9548H148.501Z" fill="black"/>
<path d="M198.159 187.593H193.406L184.868 68.77H191.173L198.159 187.593Z" fill="#263238"/>
<path opacity="0.5" d="M198.159 187.592H193.406L185.287 74.6696L184.868 68.9548H191.173L191.514 74.6696L198.159 187.592Z" fill="white"/>
<path opacity="0.2" d="M191.514 74.3827H185.287L184.868 68.9548H191.173L191.514 74.3827Z" fill="black"/>
<path d="M58.5239 187.593H53.7706L60.7493 68.77H67.0533L58.5239 187.593Z" fill="#263238"/>
<path opacity="0.5" d="M67.0533 68.9548L66.6346 74.6696L58.5161 187.592H53.7706L60.4081 74.6696L60.7493 68.9548H67.0533Z" fill="white"/>
<path opacity="0.2" d="M60.7497 68.9548H67.0538L66.6351 74.3827H60.4086L60.7497 68.9548Z" fill="black"/>
<path d="M55.7563 65.7913H196.166V70.0637C196.166 70.5079 195.99 70.934 195.676 71.2481C195.362 71.5622 194.936 71.7386 194.492 71.7386H57.4234C56.9792 71.7386 56.5532 71.5622 56.2391 71.2481C55.925 70.934 55.7485 70.5079 55.7485 70.0637V65.7913H55.7563Z" fill="#F2C94C"/>
<path opacity="0.2" d="M196.166 65.7913H55.7561V68.7688H196.166V65.7913Z" fill="black"/>
<path d="M199.112 66.5665H52.8167C52.3717 66.5665 51.9449 66.3903 51.6296 66.0764C51.3143 65.7625 51.1361 65.3365 51.134 64.8916C51.134 64.4453 51.3113 64.0174 51.6269 63.7018C51.9424 63.3863 52.3704 63.209 52.8167 63.209H199.112C199.557 63.211 199.983 63.3892 200.297 63.7045C200.611 64.0199 200.787 64.4467 200.787 64.8916C200.787 65.1115 200.744 65.3293 200.66 65.5325C200.575 65.7358 200.452 65.9204 200.296 66.0759C200.141 66.2315 199.956 66.3548 199.753 66.439C199.55 66.5232 199.332 66.5665 199.112 66.5665Z" fill="#F2C94C"/>
</svg>
