<svg width="140" height="140" viewBox="0 0 140 140" fill="none" xmlns="http://www.w3.org/2000/svg">
<path d="M50.6705 23.3298L65.878 8.12231C66.9719 7.02873 68.4553 6.41439 70.0021 6.41439C71.5489 6.41439 73.0324 7.02873 74.1263 8.12231L89.3338 23.3298H110.835C112.383 23.3298 113.866 23.9444 114.96 25.0384C116.054 26.1323 116.669 27.616 116.669 29.1631V50.6648L131.876 65.8723C132.97 66.9662 133.584 68.4497 133.584 69.9965C133.584 71.5433 132.97 73.0267 131.876 74.1206L116.669 89.3282V110.83C116.669 112.377 116.054 113.861 114.96 114.955C113.866 116.049 112.383 116.663 110.835 116.663H89.3338L74.1263 131.871C73.0324 132.964 71.5489 133.579 70.0021 133.579C68.4553 133.579 66.9719 132.964 65.878 131.871L50.6705 116.663H29.1688C27.6217 116.663 26.138 116.049 25.044 114.955C23.95 113.861 23.3355 112.377 23.3355 110.83V89.3282L8.12797 74.1206C7.03438 73.0267 6.42004 71.5433 6.42004 69.9965C6.42004 68.4497 7.03438 66.9662 8.12797 65.8723L23.3355 50.6648V29.1631C23.3355 27.616 23.95 26.1323 25.044 25.0384C26.138 23.9444 27.6217 23.3298 29.1688 23.3298H50.6705ZM35.0021 34.9965V55.5007L20.5063 69.9965L35.0021 84.4923V104.996H55.5063L70.0021 119.492L84.498 104.996H105.002V84.4923L119.498 69.9965L105.002 55.5007V34.9965H84.498L70.0021 20.5006L55.5063 34.9965H35.0021ZM70.0021 93.3298C63.8137 93.3298 57.8788 90.8715 53.503 86.4956C49.1271 82.1198 46.6688 76.1849 46.6688 69.9965C46.6688 63.8081 49.1271 57.8732 53.503 53.4973C57.8788 49.1215 63.8137 46.6631 70.0021 46.6631C76.1905 46.6631 82.1254 49.1215 86.5013 53.4973C90.8771 57.8732 93.3355 63.8081 93.3355 69.9965C93.3355 76.1849 90.8771 82.1198 86.5013 86.4956C82.1254 90.8715 76.1905 93.3298 70.0021 93.3298ZM70.0021 81.6631C73.0963 81.6631 76.0638 80.434 78.2517 78.2461C80.4396 76.0581 81.6688 73.0907 81.6688 69.9965C81.6688 66.9023 80.4396 63.9348 78.2517 61.7469C76.0638 59.559 73.0963 58.3298 70.0021 58.3298C66.9079 58.3298 63.9405 59.559 61.7526 61.7469C59.5646 63.9348 58.3355 66.9023 58.3355 69.9965C58.3355 73.0907 59.5646 76.0581 61.7526 78.2461C63.9405 80.434 66.9079 81.6631 70.0021 81.6631Z" fill="#335FE6"/>
</svg>
