<svg width="50" height="18" viewBox="0 0 50 18" fill="none" xmlns="http://www.w3.org/2000/svg">
<g clip-path="url(#clip0_745_2875)">
<path d="M11.6304 9.0882C11.6098 6.92398 13.3985 5.88416 13.479 5.83464C12.4722 4.36363 10.9083 4.16144 10.3513 4.13875C9.02057 4.00258 7.7538 4.92274 7.0771 4.92274C6.40039 4.92274 5.35851 4.15732 4.25473 4.18001C2.80229 4.20064 1.46332 5.02383 0.714399 6.3236C-0.791687 8.93553 0.330656 12.8142 1.80167 14.9372C2.5217 15.9749 3.37584 17.1447 4.50231 17.1014C5.58752 17.0581 5.99602 16.3999 7.30404 16.3999C8.61207 16.3999 8.98137 17.1014 10.1264 17.0808C11.2921 17.0581 12.0307 16.0203 12.7445 14.9784C13.5656 13.7715 13.9061 12.6058 13.9267 12.5439C13.8999 12.5336 11.6552 11.6733 11.6304 9.0882Z" fill="black"/>
<path d="M9.47732 2.73159C10.0756 2.00743 10.4779 1.00268 10.3686 0C9.50827 0.0350732 8.46639 0.573551 7.84951 1.29771C7.29659 1.93728 6.81176 2.96059 6.9438 3.94265C7.89903 4.01692 8.88108 3.45368 9.47732 2.73159ZM19.174 11.2152L18.1837 14.217H16.9108L20.152 4.67712H21.6374L24.891 14.217H23.5747L22.5555 11.2152H19.174ZM22.3017 10.2517L21.3692 7.50567C21.1567 6.88261 21.0164 6.31731 20.8741 5.76439H20.8472C20.7049 6.32969 20.5502 6.90943 20.3665 7.49123L19.434 10.2496L22.3017 10.2517ZM25.8565 9.60182C25.8565 8.72498 25.8297 8.01527 25.7988 7.36538H26.917L26.9747 8.54137H27.0016C27.5112 7.7058 28.3178 7.21065 29.4361 7.21065C31.0928 7.21065 32.3368 8.61151 32.3368 10.6932C32.3368 13.1566 30.8369 14.3718 29.2236 14.3718C28.3178 14.3718 27.5256 13.9757 27.115 13.2969H27.0882V17.0188H25.8565V9.60182ZM27.0862 11.4277C27.0862 11.6134 27.113 11.7805 27.1439 11.9373C27.3709 12.7997 28.1198 13.3959 29.0131 13.3959C30.3294 13.3959 31.0948 12.321 31.0948 10.7489C31.0948 9.37487 30.3727 8.20301 29.0564 8.20301C28.2085 8.20301 27.4163 8.81164 27.1728 9.74623C27.1295 9.90097 27.0882 10.0867 27.0882 10.2558L27.0862 11.4277ZM33.6242 9.60182C33.6242 8.72498 33.5974 8.01527 33.5665 7.36538H34.6847L34.7424 8.54137H34.7693C35.2789 7.7058 36.0855 7.21065 37.2038 7.21065C38.8604 7.21065 40.1045 8.61151 40.1045 10.6932C40.1045 13.1566 38.6046 14.3718 36.9912 14.3718C36.0855 14.3718 35.2933 13.9757 34.8827 13.2969H34.8559V17.0188H33.6242V9.60182ZM34.8559 11.4277C34.8559 11.6134 34.8827 11.7805 34.9137 11.9373C35.1406 12.7997 35.8895 13.3959 36.7829 13.3959C38.0992 13.3959 38.8646 12.321 38.8646 10.7489C38.8646 9.37487 38.1425 8.20301 36.8262 8.20301C35.9783 8.20301 35.186 8.81164 34.9426 9.74623C34.8992 9.90097 34.858 10.0867 34.858 10.2558L34.8559 11.4277ZM41.394 4.16753H42.6401V14.215H41.394V4.16753ZM45.1447 11.0171C45.1716 12.7006 46.2485 13.3959 47.4926 13.3959C48.3839 13.3959 48.9223 13.2412 49.3886 13.0431L49.6011 13.9344C49.1637 14.1325 48.4127 14.3594 47.3234 14.3594C45.2149 14.3594 43.9543 12.973 43.9543 10.9057C43.9543 8.83846 45.1716 7.21065 47.1666 7.21065C49.403 7.21065 49.9972 9.17681 49.9972 10.4374C49.9972 10.6932 49.9704 10.8892 49.9539 11.0171H45.1447ZM48.7965 10.1259C48.8109 9.33361 48.4705 8.10192 47.0696 8.10192C45.8091 8.10192 45.2582 9.26346 45.1592 10.1259H48.7965Z" fill="black"/>
</g>
<defs>
<clipPath id="clip0_745_2875">
<rect width="50" height="17.1034" fill="white"/>
</clipPath>
</defs>
</svg>
