<svg width="50" height="11" viewBox="0 0 50 11" fill="none" xmlns="http://www.w3.org/2000/svg">
<g clip-path="url(#clip0_745_3100)">
<mask id="mask0_745_3100" style="mask-type:luminance" maskUnits="userSpaceOnUse" x="-1" y="0" width="51" height="11">
<path d="M-0.0537109 0.0078125H49.947V10.6358H-0.0537109" fill="#205081"/>
</mask>
<g mask="url(#mask0_745_3100)">
<path fill-rule="evenodd" clip-rule="evenodd" d="M14.5348 2.86144C14.5221 2.82125 14.4969 2.78615 14.4629 2.76125C14.4289 2.73634 14.3878 2.72292 14.3457 2.72293H12.4951C12.4529 2.72292 12.4119 2.73634 12.3778 2.76125C12.3438 2.78615 12.3186 2.82125 12.3059 2.86144L9.97105 10.2665C9.95217 10.3268 9.96287 10.3924 10.0003 10.4435C10.0187 10.4686 10.0428 10.489 10.0706 10.5031C10.0983 10.5172 10.129 10.5245 10.1602 10.5245H11.4343C11.5222 10.5245 11.5996 10.4666 11.6244 10.3822L13.2324 4.9363C13.2324 4.9363 13.2744 4.80031 13.42 4.80031C13.5681 4.80031 13.6041 4.94178 13.6041 4.94197L14.3501 7.52415H13.348C13.3048 7.52412 13.2627 7.53824 13.2282 7.56435C13.1938 7.59046 13.1688 7.62713 13.1571 7.66877L12.8695 8.69122C12.8611 8.7207 12.8597 8.75171 12.8654 8.78182C12.8711 8.81194 12.8837 8.84032 12.9022 8.86474C12.9207 8.88917 12.9446 8.90896 12.972 8.92257C12.9995 8.93618 13.0297 8.94323 13.0604 8.94318H14.7672L15.2165 10.3852C15.2291 10.4255 15.2542 10.4608 15.2883 10.4859C15.3224 10.5109 15.3635 10.5245 15.4058 10.5244H16.6804C16.7116 10.5244 16.7423 10.5171 16.77 10.503C16.7978 10.4889 16.8219 10.4684 16.8403 10.4433C16.8587 10.4182 16.871 10.3891 16.8761 10.3584C16.8812 10.3276 16.8789 10.2962 16.8696 10.2664L14.5348 2.86144ZM20.0859 9.38332C20.0817 9.35602 20.0719 9.32988 20.057 9.30658C20.0422 9.28327 20.0227 9.26331 19.9997 9.24796C19.9768 9.23259 19.9508 9.2222 19.9236 9.21746C19.8964 9.21272 19.8685 9.21374 19.8417 9.22044C19.6349 9.27176 19.4367 9.30015 19.2839 9.30015C18.9939 9.30015 18.8647 9.17442 18.8647 8.89256V6.05545H20.0024C20.055 6.05544 20.1054 6.03454 20.1426 5.99736C20.1798 5.96017 20.2008 5.90974 20.2008 5.85713V4.97219C20.2008 4.86264 20.112 4.77399 20.0025 4.77399H18.8647V3.40779C18.8647 3.37943 18.8586 3.3514 18.8469 3.32558C18.8351 3.29977 18.818 3.27678 18.7966 3.25816C18.7752 3.23954 18.7501 3.22573 18.7229 3.21765C18.6957 3.20958 18.6671 3.20744 18.639 3.21136L17.4676 3.37455C17.4202 3.38114 17.3767 3.40466 17.3453 3.44076C17.3139 3.47686 17.2965 3.52311 17.2965 3.57098V4.77393H16.6584C16.6059 4.77393 16.5554 4.79481 16.5183 4.83197C16.4811 4.86914 16.4602 4.91955 16.4601 4.97213V5.85707C16.4601 5.90967 16.481 5.96011 16.5182 5.9973C16.5554 6.0345 16.6059 6.05539 16.6584 6.05539H17.2965V9.07583C17.2965 10.1131 17.8418 10.6389 18.9171 10.6389C19.2231 10.6389 19.7427 10.5684 20.0826 10.4503C20.1263 10.4351 20.1633 10.4052 20.1872 10.3656C20.2111 10.3261 20.2204 10.2794 20.2135 10.2337L20.0857 9.38326M22.2544 2.57838H21.083C21.0569 2.57838 21.0311 2.58351 21.0071 2.59349C20.983 2.60346 20.9611 2.61808 20.9427 2.63651C20.9243 2.65494 20.9097 2.67681 20.8997 2.70089C20.8898 2.72497 20.8847 2.75077 20.8847 2.77682V10.3262C20.8847 10.3788 20.9056 10.4292 20.9428 10.4664C20.9799 10.5036 21.0304 10.5245 21.083 10.5245H22.2544C22.307 10.5245 22.3574 10.5036 22.3946 10.4664C22.4318 10.4292 22.4527 10.3788 22.4527 10.3262V2.7767C22.4527 2.66702 22.3639 2.57838 22.2544 2.57838ZM26.0524 8.41609V9.10586C25.8583 9.2093 25.5065 9.35751 25.0833 9.35751C24.7181 9.35751 24.6068 9.2462 24.6068 8.88091C24.6068 8.52633 24.6757 8.41602 25.1062 8.41602L26.0524 8.41609ZM25.2665 4.65935C24.6735 4.65935 23.9518 4.75284 23.4279 4.89771C23.3809 4.91065 23.3402 4.94053 23.3139 4.98161C23.2875 5.02269 23.2772 5.07208 23.285 5.12027L23.4222 5.97065C23.4264 5.99688 23.4358 6.02199 23.4499 6.04449C23.4641 6.06698 23.4826 6.08641 23.5044 6.1016C23.5483 6.13245 23.603 6.14404 23.6558 6.13359C24.1429 6.0389 24.6458 5.98664 25.0717 5.98664C25.9173 5.98664 26.0524 6.16513 26.0524 6.73805V7.23763H24.7968C23.5967 7.23763 23.0846 7.73261 23.0846 8.89262C23.0846 10.0025 23.646 10.639 24.6249 10.639C25.191 10.639 25.7581 10.4818 26.2347 10.1945L26.2848 10.3783C26.2962 10.4203 26.3211 10.4574 26.3557 10.4838C26.3903 10.5102 26.4326 10.5245 26.4761 10.5245H27.4222C27.4748 10.5245 27.5252 10.5036 27.5624 10.4664C27.5996 10.4292 27.6205 10.3788 27.6205 10.3262V6.76109C27.6205 5.22893 26.9825 4.65935 25.2665 4.65935H25.2665ZM30.5559 6.96533C29.829 6.77797 29.829 6.77041 29.829 6.37163C29.829 6.10381 29.8556 5.97518 30.4544 5.97518C30.8646 5.97518 31.47 6.04695 31.8587 6.11344C31.9122 6.12257 31.967 6.10947 32.0104 6.07692C32.0319 6.06094 32.05 6.04076 32.0635 6.0176C32.077 5.99444 32.0856 5.96879 32.089 5.94219L32.1994 5.04944C32.2054 5.00081 32.1932 4.95168 32.1652 4.9115C32.1372 4.87131 32.0953 4.84292 32.0475 4.83179C31.598 4.72703 30.9726 4.65928 30.4544 4.65928C28.6529 4.65928 28.2838 5.33924 28.2838 6.35992C28.2838 7.48228 28.4923 7.85947 29.873 8.19579C30.7818 8.41458 30.7818 8.57713 30.7818 8.84666C30.7818 9.20061 30.7516 9.32307 30.1565 9.32307C29.6774 9.32307 29.1229 9.24852 28.6351 9.11845C28.6087 9.1114 28.581 9.1099 28.554 9.11406C28.5269 9.11821 28.501 9.12792 28.4779 9.14257C28.4548 9.15723 28.4349 9.17651 28.4196 9.19921C28.4043 9.22191 28.3939 9.24753 28.389 9.27446L28.2341 10.1216C28.2254 10.1688 28.2342 10.2177 28.2588 10.2589C28.2835 10.3002 28.3223 10.3311 28.368 10.3459C28.9 10.5185 29.6637 10.6389 30.2253 10.6389C31.9695 10.6389 32.327 9.90871 32.327 8.81222C32.327 7.60153 32.1119 7.37714 30.5558 6.96527M35.0821 6.96533C34.3553 6.77797 34.3553 6.77041 34.3553 6.37163C34.3553 6.10381 34.3819 5.97518 34.9807 5.97518C35.391 5.97518 35.9962 6.04695 36.385 6.11344C36.4385 6.12257 36.4933 6.10947 36.5367 6.07692C36.5583 6.06094 36.5763 6.04076 36.5898 6.01761C36.6033 5.99445 36.612 5.96879 36.6152 5.94219L36.7257 5.04944C36.7317 5.00083 36.7196 4.95169 36.6916 4.91151C36.6636 4.87132 36.6217 4.84292 36.5739 4.83179C36.1243 4.72703 35.4989 4.65928 34.9807 4.65928C33.1793 4.65928 32.8102 5.33924 32.8102 6.35992C32.8102 7.48228 33.0185 7.85947 34.3994 8.19579C35.3082 8.41458 35.3082 8.57713 35.3082 8.84666C35.3082 9.20061 35.278 9.32307 34.6828 9.32307C34.2037 9.32307 33.6492 9.24852 33.1615 9.11845C33.135 9.11141 33.1074 9.10992 33.0803 9.11408C33.0533 9.11824 33.0274 9.12796 33.0043 9.14263C32.9811 9.15724 32.9612 9.1765 32.9459 9.1992C32.9306 9.22189 32.9201 9.24752 32.9152 9.27446L32.7604 10.1216C32.7517 10.1688 32.7605 10.2177 32.7851 10.2589C32.8097 10.3002 32.8485 10.3311 32.8943 10.3459C33.4263 10.5185 34.19 10.6389 34.7515 10.6389C36.4958 10.6389 36.8533 9.90871 36.8533 8.81222C36.8533 7.60153 36.6382 7.37714 35.0821 6.96527M38.936 4.77399H37.7646C37.712 4.77399 37.6616 4.79487 37.6244 4.83204C37.5872 4.8692 37.5663 4.91961 37.5663 4.97219V10.3262C37.5663 10.3788 37.5872 10.4292 37.6244 10.4664C37.6616 10.5036 37.712 10.5245 37.7646 10.5245H38.936C38.9886 10.5245 39.0391 10.5036 39.0763 10.4664C39.1135 10.4292 39.1343 10.3788 39.1343 10.3262V4.97206C39.1343 4.86251 39.0456 4.77387 38.936 4.77387M42.7635 8.41609V9.10586C42.5693 9.2093 42.2176 9.35751 41.7943 9.35751C41.4291 9.35751 41.3179 9.2462 41.3179 8.88091C41.3179 8.52633 41.3868 8.41602 41.8171 8.41602L42.7635 8.41609ZM41.9776 4.65935C41.3845 4.65935 40.6629 4.75284 40.139 4.89771C40.092 4.91065 40.0513 4.94053 40.025 4.98161C39.9986 5.02269 39.9883 5.07208 39.9961 5.12027L40.1332 5.97065C40.1418 6.02366 40.1716 6.07088 40.2155 6.1016C40.2595 6.13245 40.3141 6.14404 40.3669 6.13359C40.854 6.0389 41.3569 5.98664 41.7829 5.98664C42.6284 5.98664 42.7636 6.16513 42.7636 6.73805V7.23763H41.5079C40.3079 7.23763 39.7957 7.73261 39.7957 8.89262C39.7957 10.0025 40.3571 10.639 41.336 10.639C41.9022 10.639 42.4693 10.4818 42.9457 10.1945L42.9959 10.3783C43.0074 10.4203 43.0323 10.4574 43.0669 10.4838C43.1015 10.5102 43.1438 10.5245 43.1873 10.5245H44.1333C44.1859 10.5245 44.2364 10.5036 44.2736 10.4664C44.3107 10.4292 44.3316 10.3788 44.3316 10.3262V6.76109C44.3316 5.22893 43.6936 4.65935 41.9776 4.65935ZM48.6642 4.65935C48.0432 4.65935 47.1976 4.87341 46.4832 5.20872L46.3977 4.91641C46.3856 4.87528 46.3606 4.83917 46.3262 4.81349C46.2919 4.7878 46.2502 4.77393 46.2074 4.77393H45.3398C45.2872 4.77393 45.2368 4.79481 45.1996 4.83197C45.1624 4.86914 45.1415 4.91955 45.1415 4.97213V10.3261C45.1415 10.3787 45.1624 10.4292 45.1996 10.4664C45.2368 10.5035 45.2872 10.5244 45.3398 10.5244H46.5112C46.5638 10.5244 46.6142 10.5035 46.6514 10.4664C46.6886 10.4292 46.7095 10.3787 46.7095 10.3261V6.61812C47.1315 6.40343 47.7247 6.1815 48.0798 6.1815C48.3436 6.1815 48.4417 6.27959 48.4417 6.54332V10.3261C48.4417 10.3522 48.4468 10.378 48.4568 10.4021C48.4667 10.4261 48.4813 10.448 48.4997 10.4664C48.5182 10.4849 48.54 10.4995 48.5641 10.5095C48.5882 10.5194 48.614 10.5246 48.64 10.5246H49.8114C49.864 10.5246 49.9145 10.5037 49.9517 10.4665C49.9889 10.4293 50.0097 10.3788 50.0097 10.3262V6.39449C50.0097 5.2431 49.5571 4.65935 48.6643 4.65935M38.8731 2.57812H37.7017C37.6491 2.57812 37.5986 2.59902 37.5614 2.63621C37.5242 2.6734 37.5033 2.72385 37.5033 2.77644V3.81211C37.5033 3.86471 37.5242 3.91515 37.5614 3.95235C37.5986 3.98954 37.6491 4.01043 37.7017 4.01043H38.8731C38.9257 4.01043 38.9761 3.98954 39.0133 3.95235C39.0505 3.91515 39.0714 3.86471 39.0714 3.81211V2.77644C39.0714 2.72385 39.0505 2.6734 39.0133 2.63621C38.9761 2.59902 38.9257 2.57813 38.8731 2.57812Z" fill="#205081"/>
</g>
<mask id="mask1_745_3100" style="mask-type:luminance" maskUnits="userSpaceOnUse" x="0" y="0" width="51" height="11">
<path d="M0.00878906 0.0078125H50.0095V10.6358H0.00878906" fill="#59AFE1"/>
</mask>
<g mask="url(#mask1_745_3100)">
<path fill-rule="evenodd" clip-rule="evenodd" d="M9.57204 2.61253C9.53454 2.58398 9.48872 2.5685 9.44159 2.56846C9.41578 2.56846 9.38977 2.57325 9.36503 2.58269C8.90122 2.76005 8.43029 2.89472 8.00034 2.99488C7.9127 3.01534 7.84188 3.08051 7.81247 3.15857C7.49925 4.01657 6.69949 4.83346 5.86038 5.68919C5.8267 5.72118 5.77954 5.76336 5.70273 5.76336C5.62611 5.76336 5.57933 5.72244 5.54508 5.68919C4.7061 4.83346 3.90627 4.01953 3.59305 3.16141C3.56365 3.08334 3.49276 3.01818 3.40525 2.99772C2.97511 2.89749 2.50292 2.75866 2.03968 2.58137C2.01515 2.572 1.98912 2.56718 1.96287 2.56714C1.91612 2.56702 1.87064 2.58238 1.83355 2.61083C1.80479 2.63282 1.78207 2.66173 1.7675 2.69486C1.75294 2.728 1.74701 2.76429 1.75025 2.80034C1.8214 3.51379 2.1032 4.21124 2.61197 4.94219C3.0902 5.62932 3.714 6.26533 4.31708 6.88043C5.42829 8.01381 6.47807 9.0843 6.57017 10.3257C6.57417 10.3797 6.59845 10.4302 6.63816 10.4671C6.67787 10.504 6.73005 10.5244 6.78423 10.5244H8.08974C8.11883 10.5244 8.1476 10.5184 8.17433 10.5069C8.20105 10.4955 8.22517 10.4787 8.24522 10.4576C8.26527 10.4365 8.28084 10.4116 8.29098 10.3844C8.30113 10.3571 8.30564 10.3281 8.30424 10.299C8.26313 9.4691 7.95079 8.63799 7.34941 7.75845C7.22238 7.57348 7.08818 7.39353 6.94711 7.21902C6.88982 7.14744 6.91387 7.05861 6.95781 7.01378C7.00106 6.96939 7.04469 6.92513 7.08845 6.88031C7.69159 6.2652 8.31526 5.62919 8.79362 4.942C9.30232 4.21105 9.58419 3.51769 9.65527 2.80437C9.66238 2.73272 9.62977 2.65661 9.57198 2.61247M11.474 0.11736C11.4486 0.083449 11.4157 0.0559012 11.3778 0.0368901C11.34 0.0178791 11.2982 0.00792477 11.2559 0.0078125C11.2118 0.0078125 11.1682 0.0188932 11.1301 0.0397325C9.52986 0.915675 7.67491 1.37905 5.76556 1.37949C3.85628 1.37892 2.00127 0.915675 0.401179 0.0396695C0.362554 0.0188022 0.319351 0.00785551 0.27545 0.0078125C0.189827 0.0078125 0.108358 0.0487356 0.0572989 0.117109C-0.0184403 0.217842 -0.0207697 0.386823 0.108106 0.487431C0.909569 1.08491 1.793 1.55143 2.73398 1.87038C3.70934 2.20129 4.72914 2.36933 5.76519 2.36977H5.76594C6.80205 2.36933 7.82192 2.20129 8.79721 1.87038C9.73825 1.55131 10.6216 1.08491 11.4241 0.486675C11.5521 0.386697 11.5496 0.217716 11.474 0.117297M4.30178 7.8459C4.27093 7.81361 4.2256 7.78062 4.14942 7.78062C4.05196 7.78062 3.9941 7.84798 3.97225 7.88135C3.42313 8.71694 3.1395 9.50568 3.10028 10.2982C3.09744 10.3566 3.11897 10.4147 3.15946 10.4575C3.17967 10.4785 3.20392 10.4953 3.23074 10.5067C3.25756 10.5182 3.28642 10.5241 3.31559 10.5242H4.61896C4.73103 10.5242 4.82547 10.4365 4.83378 10.3246C4.86211 9.94274 4.9811 9.55982 5.19755 9.15739C5.2726 9.01825 5.2143 8.88749 5.17111 8.83158C4.95629 8.55224 4.69325 8.25425 4.30184 7.84584M5.70399 3.25207C6.1131 3.25207 6.35039 3.22751 6.43381 3.22751C6.53473 3.22751 6.63124 3.31024 6.63124 3.42609C6.63124 3.45996 6.62325 3.48401 6.61532 3.50541C6.56105 3.65047 6.31374 4.1724 5.85339 4.62016C5.80177 4.67034 5.74321 4.67972 5.70292 4.67972H5.70229C5.66219 4.67972 5.60363 4.67027 5.55207 4.62016C5.09159 4.1724 4.84423 3.65047 4.79008 3.50541C4.78209 3.48401 4.77409 3.45996 4.77409 3.42609C4.77409 3.31024 4.87067 3.22751 4.97166 3.22751C5.05508 3.22751 5.2923 3.25207 5.70135 3.25207H5.70399Z" fill="#59AFE1"/>
</g>
</g>
<defs>
<clipPath id="clip0_745_3100">
<rect width="50" height="10.64" fill="white"/>
</clipPath>
</defs>
</svg>
