<svg width="50" height="9" viewBox="0 0 50 9" fill="none" xmlns="http://www.w3.org/2000/svg">
<g clip-path="url(#clip0_745_3129)">
<path d="M4.1996 8.4371V6.79638C5.93912 6.79638 7.28094 5.08131 6.61028 3.26644C6.48824 2.92958 6.29367 2.62366 6.04033 2.37032C5.78699 2.11698 5.48107 1.9224 5.14421 1.80037C4.75325 1.65336 4.33254 1.60302 3.91793 1.65363C3.50331 1.70424 3.10707 1.85431 2.76296 2.09106C2.41884 2.32781 2.13703 2.64422 1.94155 3.01334C1.74606 3.38246 1.64268 3.79336 1.64022 4.21105H0C0 1.47652 2.65918 -0.686156 5.56637 0.209053C6.19112 0.405293 6.75919 0.749622 7.2222 1.21271C7.6852 1.67581 8.02943 2.24394 8.22555 2.86873C9.12026 5.77742 6.95808 8.4371 4.1996 8.4371Z" fill="#0080FF"/>
<path d="M4.22447 6.79684H2.58425V5.18107H4.22447M2.58425 8.0648H1.34173V6.79684H2.58425V8.0648ZM1.34173 6.79684H0.299316V5.75292H1.34173M14.9849 2.44654C14.5129 2.12318 13.8916 1.94754 13.1955 1.94754H11.6801V6.79484H13.196C13.892 6.79484 14.4884 6.62086 14.9854 6.27288C15.2569 6.0754 15.4712 5.80958 15.6067 5.50243C15.7564 5.17907 15.8303 4.78137 15.8303 4.35871C15.8303 3.93606 15.7559 3.53835 15.6067 3.23995C15.457 2.86919 15.2584 2.62069 14.9849 2.44654ZM12.5748 2.76989H13.0468C13.5688 2.76989 14.0159 2.86969 14.3637 3.09324C14.7364 3.3168 14.9126 3.74195 14.9126 4.36121C14.9126 4.98047 14.713 5.43007 14.3637 5.67857C14.0408 5.87817 13.6182 6.00193 13.0713 6.00193H12.5748V2.76989ZM16.8986 1.87518C16.8296 1.87333 16.7608 1.88567 16.6967 1.91141C16.6326 1.93716 16.5745 1.97578 16.5259 2.02488C16.4692 2.06864 16.4239 2.1253 16.3936 2.19014C16.3633 2.25498 16.3489 2.32612 16.3517 2.39764C16.3517 2.53607 16.4067 2.66883 16.5046 2.76671C16.6025 2.8646 16.7352 2.91959 16.8737 2.91959C17.0121 2.91959 17.1449 2.8646 17.2427 2.76671C17.3406 2.66883 17.3956 2.53607 17.3956 2.39764C17.3974 2.32857 17.3851 2.25987 17.3593 2.19577C17.3336 2.13166 17.295 2.0735 17.2459 2.02488C17.1716 1.92508 17.0463 1.87518 16.8966 1.87518M16.4475 3.3667H17.3173V6.77239H16.451V3.3667M20.4271 3.6661C20.1776 3.44255 19.8782 3.29334 19.5573 3.29334C19.3383 3.28852 19.1208 3.33054 18.9193 3.4166C18.7178 3.50266 18.5371 3.63077 18.3891 3.79235C18.0787 4.12113 17.9093 4.55832 17.9171 5.01041C17.9171 5.48296 18.0668 5.90512 18.3662 6.22847C18.6656 6.55183 19.0618 6.70103 19.5343 6.70103C19.8384 6.7058 20.1355 6.60963 20.3792 6.42758V6.50193C20.3792 6.77538 20.3048 7.00093 20.1556 7.15063C20.0064 7.30033 19.8063 7.37418 19.5343 7.37418C19.1351 7.37418 18.8881 7.22448 18.5902 6.80233L17.9914 7.37418L18.0164 7.39913C18.1406 7.57328 18.3392 7.74843 18.5877 7.92109C18.8362 8.09374 19.1591 8.17059 19.5319 8.17059C20.0538 8.17059 20.4515 8.02089 20.7494 7.69803C21.0473 7.37518 21.2215 6.97698 21.2215 6.45502V3.3667H20.3777V3.6661H20.4276M20.204 5.67957C20.0543 5.85372 19.8547 5.92907 19.6052 5.92907C19.3557 5.92907 19.1561 5.85472 19.0064 5.67957C18.8567 5.50442 18.7828 5.28037 18.7828 5.00841C18.7828 4.73646 18.8622 4.50991 19.0119 4.33576C19.1616 4.16161 19.3612 4.08626 19.6107 4.08626C19.8602 4.08626 20.0598 4.16061 20.2095 4.33576C20.3592 4.51091 20.433 4.73496 20.433 5.00692C20.433 5.27887 20.3587 5.50592 20.2095 5.67807M22.0234 3.3662H22.8931V6.77189H22.0179V3.3667M22.4405 1.87518C22.3715 1.87347 22.3029 1.8858 22.2388 1.91142C22.1747 1.93705 22.1165 1.97543 22.0676 2.02425C22.0188 2.07306 21.9804 2.13128 21.9548 2.19539C21.9292 2.25949 21.9169 2.32813 21.9186 2.39714C21.9186 2.53557 21.9736 2.66833 22.0715 2.76621C22.1693 2.8641 22.3021 2.91909 22.4405 2.91909C22.579 2.91909 22.7117 2.8641 22.8096 2.76621C22.9075 2.66833 22.9625 2.53557 22.9625 2.39714C22.9642 2.32808 22.9519 2.2594 22.9262 2.19527C22.9005 2.13113 22.8621 2.07288 22.8133 2.02406C22.7644 1.97524 22.7061 1.93687 22.6419 1.91127C22.5778 1.88568 22.5091 1.8734 22.44 1.87518M24.7504 2.44654H23.9066V3.3667H23.4076V4.13716H23.9066V5.55432C23.9066 6.00342 24.0064 6.32478 24.1801 6.49893C24.3537 6.67308 24.6791 6.77239 25.0997 6.77239C25.2411 6.77648 25.3825 6.76813 25.5224 6.74744H25.5723V5.97648L25.2729 6.00143C25.0733 6.00143 24.9236 5.97648 24.8737 5.90163C24.7993 5.82728 24.7739 5.67807 24.7739 5.45253V4.16211H25.5693V3.39115H24.7764L24.7504 2.44654ZM29.5713 1.94754H30.441V6.79484H29.5723V1.95053M39.1152 5.57977C38.9881 5.72674 38.8465 5.86049 38.6925 5.97897C38.5572 6.06104 38.4017 6.10404 38.2434 6.10322C38.1269 6.10221 38.0118 6.07718 37.9053 6.0297C37.7988 5.98223 37.7033 5.91332 37.6247 5.82728C37.4505 5.62768 37.3752 5.40462 37.3752 5.10622C37.3752 4.80781 37.4495 4.58426 37.6247 4.38516C37.7001 4.29479 37.7955 4.22308 37.9033 4.17565C38.011 4.12821 38.1283 4.10633 38.2459 4.11171C38.5194 4.11171 38.8173 4.28586 39.0658 4.58426L39.6371 4.03536C39.2644 3.5628 38.7923 3.33925 38.2205 3.33925C37.7484 3.33925 37.3507 3.5134 37.0029 3.86121C36.6774 4.20252 36.4983 4.65758 36.5039 5.12917C36.5039 5.62817 36.6781 6.07378 37.0029 6.39714C37.1575 6.56521 37.3459 6.69862 37.5558 6.78859C37.7656 6.87855 37.9922 6.92303 38.2205 6.91909C38.8417 6.91909 39.3387 6.64564 39.6865 6.14863L39.1152 5.57678M42.6192 3.86171C42.4884 3.68944 42.3169 3.55228 42.1202 3.46251C41.8946 3.35805 41.6481 3.30683 41.3996 3.31281C40.9276 3.31281 40.5299 3.48696 40.2314 3.83476C39.949 4.19629 39.7998 4.64406 39.8088 5.10272C39.8088 5.62468 39.9585 6.04734 40.2808 6.37069C40.6032 6.69404 41.0014 6.86969 41.5234 6.86969C42.0947 6.86969 42.5673 6.64614 42.94 6.17358L42.965 6.14863L42.3936 5.59973C42.3437 5.67408 42.2694 5.72398 42.194 5.79933C42.1235 5.87366 42.0386 5.93291 41.9445 5.97348C41.8152 6.0443 41.6692 6.07879 41.5219 6.07328C41.3054 6.07642 41.0943 6.00605 40.9231 5.87368C40.7734 5.74943 40.6995 5.57428 40.6736 5.35173H42.96V5.02837C42.9656 4.80793 42.9318 4.58825 42.8602 4.37967C42.8238 4.18694 42.7378 4.00703 42.6107 3.85772M40.7554 4.65911C40.7934 4.50867 40.8706 4.37095 40.979 4.25991C41.0377 4.20137 41.1079 4.15566 41.1852 4.12569C41.2625 4.09571 41.3452 4.08211 41.4281 4.08576C41.6277 4.08576 41.8008 4.13566 41.9001 4.25991C41.9999 4.35971 42.0498 4.50941 42.0743 4.65911H40.7554ZM45.9246 3.63965C45.6751 3.4161 45.3033 3.3163 44.8562 3.3163C44.5828 3.32405 44.3133 3.3833 44.0618 3.49095C43.8382 3.6152 43.6127 3.79035 43.4904 4.03985L44.0393 4.56181C44.2629 4.18905 44.5114 4.06281 44.8592 4.06281C45.0218 4.05849 45.1808 4.11148 45.3083 4.21251C45.3649 4.25627 45.4103 4.31293 45.4406 4.37777C45.4709 4.44261 45.4852 4.51375 45.4824 4.58526V4.75941C45.2823 4.6919 45.0724 4.65817 44.8612 4.65961C44.4387 4.65961 44.0907 4.75941 43.8173 4.95901C43.5438 5.15861 43.4181 5.45801 43.4181 5.80432C43.4181 6.12768 43.5179 6.37618 43.7409 6.57478C43.964 6.77338 44.2399 6.84823 44.5608 6.84823C44.8816 6.84823 45.182 6.72398 45.4805 6.49893V6.77239H46.3253V4.58476C46.3253 4.18556 46.201 3.8637 45.9261 3.64015M44.4101 5.47947C44.5099 5.40512 44.6336 5.37967 44.8093 5.37967C45.0299 5.38711 45.2479 5.42903 45.4555 5.50392V5.82728C45.2498 6.00826 44.9839 6.10579 44.71 6.10073C44.5603 6.10073 44.4365 6.07578 44.3607 6.00093C44.2848 5.92608 44.2364 5.85123 44.2364 5.75143C44.2452 5.69636 44.2652 5.64368 44.2952 5.59665C44.3251 5.54961 44.3644 5.50922 44.4106 5.47797M49.6272 3.68955C49.3777 3.4161 49.0558 3.29035 48.6331 3.29035C48.2852 3.29035 48.0119 3.39015 47.8133 3.58975V3.39015H46.968V6.79584H47.8377V4.90762C47.8377 4.65811 47.8876 4.43506 48.0119 4.28636C48.0727 4.21376 48.1492 4.15592 48.2357 4.11719C48.3221 4.07847 48.4162 4.05987 48.5109 4.06281C48.5961 4.05865 48.6812 4.07454 48.7592 4.10921C48.8372 4.14387 48.9059 4.19634 48.96 4.26241C49.0767 4.4213 49.1379 4.61419 49.1341 4.81131V6.79983H49.9999V4.80831C49.975 4.33593 49.8507 3.963 49.6272 3.68955ZM28.5039 3.63965C28.2544 3.4161 27.8826 3.3163 27.4355 3.3163C27.1618 3.32376 26.8919 3.38285 26.6401 3.49045C26.4166 3.6147 26.191 3.78985 26.0688 4.03935L26.6177 4.56131C26.8412 4.18855 27.0897 4.06231 27.4375 4.06231C27.6002 4.058 27.7591 4.11098 27.8866 4.21201C27.9433 4.25577 27.9886 4.31243 28.0189 4.37727C28.0492 4.44211 28.0636 4.51325 28.0608 4.58476V4.75891C27.8607 4.6914 27.6507 4.65767 27.4395 4.65911C27.017 4.65911 26.6691 4.75891 26.3956 4.95851C26.1222 5.15811 25.9964 5.45752 25.9964 5.80382C25.9964 6.12718 26.0962 6.37568 26.3193 6.57428C26.5423 6.77288 26.8183 6.84773 27.1391 6.84773C27.46 6.84773 27.7604 6.72348 28.0588 6.49843V6.77189H28.9036V4.58476C28.9036 4.18556 28.7539 3.8637 28.5044 3.64015M26.9635 5.47947C27.0633 5.40512 27.187 5.37967 27.3627 5.37967C27.5833 5.38711 27.8013 5.42903 28.0089 5.50392V5.82728C27.8032 6.00826 27.5373 6.10579 27.2634 6.10073C27.1137 6.10073 26.9899 6.07578 26.9141 6.00093C26.8382 5.92608 26.7898 5.85123 26.7898 5.75143C26.827 5.64853 26.8864 5.55514 26.964 5.47797M33.5508 6.87019C33.0591 6.87039 32.5783 6.72475 32.1694 6.4517C31.7604 6.17866 31.4416 5.79046 31.2533 5.33622C31.065 4.88197 31.0156 4.38208 31.1114 3.89977C31.2072 3.41747 31.4439 2.97441 31.7916 2.62663C32.1392 2.27885 32.5822 2.04198 33.0644 1.94598C33.5467 1.84997 34.0466 1.89914 34.5009 2.08728C34.9553 2.27541 35.3436 2.59405 35.6168 3.0029C35.89 3.41174 36.0358 3.89243 36.0358 4.38416C36.0335 5.0426 35.7709 5.6734 35.3054 6.13908C34.8399 6.60476 34.2092 6.86756 33.5508 6.87019ZM33.5508 2.74394C33.2312 2.74345 32.9186 2.83777 32.6526 3.01497C32.3865 3.19216 32.1791 3.44428 32.0564 3.73942C31.9336 4.03456 31.9012 4.35947 31.9632 4.67303C32.0252 4.9866 32.1788 5.27474 32.4046 5.50099C32.6303 5.72725 32.9181 5.88147 33.2316 5.94413C33.545 6.00679 33.87 5.97508 34.1654 5.85301C34.4608 5.73094 34.7133 5.524 34.8911 5.25837C35.0689 4.99273 35.1639 4.68034 35.1641 4.36071C35.1645 4.14844 35.1231 3.93816 35.0421 3.74195C34.9611 3.54574 34.8421 3.36746 34.692 3.21734C34.542 3.06722 34.3637 2.94821 34.1675 2.86714C33.9713 2.78607 33.7611 2.74455 33.5488 2.74494" fill="#0080FF"/>
</g>
<defs>
<clipPath id="clip0_745_3129">
<rect width="50" height="8.44" fill="white"/>
</clipPath>
</defs>
</svg>
