<svg width="50" height="17" viewBox="0 0 50 17" fill="none" xmlns="http://www.w3.org/2000/svg">
<g clip-path="url(#clip0_745_2868)">
<path d="M6.15796 0H6.60259C8.14622 0.033557 9.66468 0.654362 10.7553 1.75336C10.3526 2.16443 9.94152 2.55873 9.54723 2.9698C8.93481 2.41611 8.19655 1.98826 7.39118 1.83725C6.19991 1.58557 4.91635 1.81208 3.91803 2.49161C2.82743 3.2047 2.08917 4.41275 1.92977 5.7047C1.7536 6.97987 2.11434 8.32215 2.94488 9.31208C3.74186 10.2768 4.9583 10.8809 6.21669 10.9228C7.39118 10.9899 8.61602 10.6292 9.47172 9.80705C10.1429 9.22819 10.4533 8.34732 10.5539 7.49161C9.16132 7.49161 7.7687 7.5 6.37608 7.49161V5.76342H12.2402C12.5422 7.61745 12.106 9.70638 10.6966 11.0319C9.75696 11.9715 8.45662 12.5252 7.13112 12.6342C5.84756 12.7601 4.52206 12.5168 3.38112 11.896C2.01367 11.1661 0.923063 9.93289 0.38615 8.48154C-0.117206 7.14765 -0.125595 5.63758 0.344204 4.2953C0.772056 3.07047 1.5942 1.98826 2.65125 1.23322C3.66635 0.486577 4.89957 0.0755034 6.15796 0Z" fill="#3780FF"/>
<path d="M39.7988 0.4375H41.5941V12.4174C40.9985 12.4174 40.3945 12.4258 39.7988 12.409C39.8072 8.42408 39.7988 4.43079 39.7988 0.4375Z" fill="#38B137"/>
<path d="M16.2333 4.59004C17.3407 4.38031 18.5404 4.61521 19.4548 5.27796C20.2854 5.86521 20.8642 6.78803 21.0404 7.79474C21.2669 8.96085 20.9817 10.236 20.2266 11.1588C19.4129 12.1907 18.079 12.7444 16.7786 12.6605C15.5874 12.5934 14.4297 11.9978 13.725 11.0246C12.928 9.95078 12.735 8.47427 13.1713 7.21588C13.6075 5.86521 14.8407 4.83333 16.2333 4.59004ZM16.485 6.184C16.032 6.30145 15.6125 6.56152 15.3105 6.93065C14.4968 7.9038 14.5471 9.48937 15.4448 10.3954C15.9565 10.9155 16.7283 11.1588 17.4414 11.0162C18.1042 10.8988 18.683 10.4541 19.0018 9.86689C19.5555 8.86857 19.3961 7.49273 18.5488 6.71253C18.0035 6.20917 17.2065 5.99944 16.485 6.184Z" fill="#FA3913"/>
<path d="M25.1252 4.59066C26.392 4.34737 27.7762 4.69972 28.7242 5.58898C30.2679 6.97321 30.4356 9.56549 29.1185 11.1595C28.3215 12.1662 27.0296 12.7199 25.7544 12.6611C24.538 12.6276 23.3383 12.0235 22.6169 11.0252C21.8031 9.92623 21.6269 8.41617 22.0883 7.13261C22.5497 5.82388 23.7578 4.82556 25.1252 4.59066ZM25.3769 6.18462C24.9239 6.30207 24.5044 6.56214 24.2024 6.92288C23.3971 7.87925 23.4306 9.43966 24.2947 10.3541C24.8064 10.8994 25.6034 11.1678 26.3417 11.0168C26.996 10.891 27.5833 10.4548 27.9021 9.86751C28.4474 8.8608 28.288 7.48496 27.4323 6.70476C26.887 6.2014 26.09 6.00006 25.3769 6.18462Z" fill="#FCBD06"/>
<path d="M32.6675 5.0775C33.6323 4.47347 34.9158 4.30569 35.9561 4.82582C36.2833 4.96844 36.5517 5.21173 36.8118 5.45502C36.8202 5.22851 36.8118 4.99361 36.8202 4.75871C37.3823 4.7671 37.9444 4.75871 38.5148 4.7671V12.1664C38.5064 13.2822 38.2212 14.4651 37.4158 15.2788C36.535 16.1765 35.1843 16.4533 33.9678 16.2688C32.6675 16.0758 31.535 15.1278 31.0316 13.9282C31.535 13.6849 32.0635 13.4919 32.5836 13.2654C32.8772 13.9533 33.4729 14.5406 34.2195 14.6748C34.9662 14.809 35.8303 14.6245 36.3168 14.0037C36.837 13.3661 36.837 12.4936 36.8118 11.7134C36.4259 12.0909 35.9813 12.4265 35.4444 12.5523C34.2783 12.8795 32.9947 12.4768 32.097 11.6882C31.191 10.8996 30.6541 9.6832 30.7044 8.47515C30.7296 7.1077 31.5014 5.79059 32.6675 5.0775ZM34.4041 6.15133C33.8923 6.23522 33.4142 6.52045 33.087 6.91475C32.2984 7.85435 32.2984 9.35602 33.0954 10.2788C33.5484 10.8241 34.2783 11.1262 34.9829 11.0507C35.6457 10.9835 36.2581 10.5641 36.5853 9.98522C37.139 9.00367 37.0467 7.66978 36.3001 6.81408C35.8387 6.28555 35.1004 6.02549 34.4041 6.15133Z" fill="#3780FF"/>
<path d="M43.7505 5.50278C44.7572 4.56318 46.3092 4.24439 47.6012 4.73935C48.826 5.20076 49.6062 6.36687 50.0005 7.56653C48.18 8.32157 46.3679 9.06821 44.5475 9.82325C44.7992 10.3014 45.1851 10.7377 45.7052 10.9138C46.4351 11.1739 47.3075 11.0816 47.92 10.5951C48.1633 10.4105 48.3562 10.1672 48.5408 9.93231C49.0022 10.2427 49.4636 10.5447 49.925 10.8551C49.2706 11.8367 48.1716 12.5246 46.9888 12.6336C45.68 12.793 44.2874 12.2897 43.4401 11.2662C42.0475 9.65546 42.1817 6.95412 43.7505 5.50278ZM44.6482 7.05479C44.3629 7.46586 44.2455 7.96922 44.2539 8.46419C45.4703 7.96083 46.6867 7.45747 47.9032 6.94573C47.7018 6.47593 47.2153 6.1907 46.7203 6.11519C45.9233 5.97257 45.0928 6.40043 44.6482 7.05479Z" fill="#FA3913"/>
</g>
<defs>
<clipPath id="clip0_745_2868">
<rect width="50" height="16.32" fill="white"/>
</clipPath>
</defs>
</svg>
