<svg width="50" height="9" viewBox="0 0 50 9" fill="none" xmlns="http://www.w3.org/2000/svg">
<g clip-path="url(#clip0_745_2878)">
<path d="M8.31075 3.32149C9.25565 2.38271 9.56689 1.16395 9.00591 0.59931C8.44493 0.03467 7.22417 0.337971 6.27926 1.27675C5.33436 2.21553 5.02312 3.43429 5.5841 3.99893C6.14508 4.56357 7.36584 4.26027 8.31075 3.32149Z" fill="#1F80FF"/>
<path d="M7.99732 7.59458C8.42073 7.16804 8.2126 6.27492 7.53244 5.59975C6.85228 4.92457 5.95766 4.72301 5.53424 5.14955C5.11082 5.5761 5.31896 6.46921 5.99912 7.14439C6.67928 7.81957 7.5739 8.02112 7.99732 7.59458Z" fill="#4AA147"/>
<path d="M4.33013 3.99444C4.89111 3.4298 4.57987 2.21104 3.63497 1.27226C2.69006 0.333478 1.4693 0.0301772 0.908319 0.594817C0.347341 1.15946 0.658577 2.37822 1.60348 3.317C2.54839 4.25578 3.76915 4.55908 4.33013 3.99444Z" fill="#CF2C91"/>
<path d="M3.94455 7.14635C4.62471 6.47117 4.83284 5.57805 4.40943 5.15151C3.98601 4.72497 3.09139 4.92653 2.41123 5.6017C1.73107 6.27688 1.52293 7.17 1.94635 7.59654C2.36977 8.02308 3.26439 7.82152 3.94455 7.14635Z" fill="#F58220"/>
<path d="M16.5301 7.44118C16.5301 7.70588 16.3242 7.91176 16.0301 7.91176C15.883 7.91176 15.7654 7.85294 15.6772 7.76471L13.6477 5.55882L12.9419 6.23529V7.35294C12.9419 7.64706 12.7066 7.91176 12.383 7.91176C12.0889 7.91176 11.8242 7.67647 11.8242 7.35294V1.05882C11.8242 0.764706 12.0595 0.5 12.383 0.5C12.6772 0.5 12.9419 0.735294 12.9419 1.05882V4.97059L15.2654 2.64706C15.3536 2.55882 15.5007 2.5 15.6477 2.5C15.9125 2.5 16.1477 2.73529 16.1477 3C16.1477 3.14706 16.0889 3.26471 16.0007 3.35294L14.3536 4.94118L16.4125 7.11765C16.4713 7.17647 16.5301 7.32353 16.5301 7.44118Z" fill="#414042"/>
<path d="M17.4121 0.941636C17.4121 0.647518 17.6768 0.382812 17.9709 0.382812C18.265 0.382812 18.5298 0.647518 18.5298 0.941636C18.5298 1.23575 18.265 1.50046 17.9709 1.50046C17.6768 1.50046 17.4121 1.23575 17.4121 0.941636ZM18.5298 3.02987V7.38281C18.5298 7.70634 18.2945 7.94164 17.9709 7.94164C17.6768 7.94164 17.4121 7.70634 17.4121 7.38281V3.02987C17.4121 2.70634 17.6474 2.47105 17.9709 2.47105C18.265 2.47105 18.5298 2.70634 18.5298 3.02987Z" fill="#414042"/>
<path d="M23.2645 3.23759C23.3233 3.32583 23.4115 3.44347 23.4115 3.61994C23.4115 3.88465 23.2057 4.03171 22.9704 4.03171C22.7939 4.03171 22.6468 3.97289 22.4998 3.767C22.2939 3.5023 21.9998 3.32583 21.588 3.32583C21.0586 3.32583 20.7645 3.59053 20.7645 3.94347C20.7645 4.20818 20.9115 4.44347 21.4704 4.59053L22.1174 4.767C22.9998 5.0023 23.6468 5.38465 23.6468 6.267C23.6468 7.35524 22.6174 7.88465 21.5586 7.88465C20.6468 7.88465 20.0292 7.5023 19.7645 7.06112C19.7057 7.0023 19.5586 6.79642 19.5586 6.53171C19.5586 6.32583 19.7057 6.09053 19.9704 6.09053C20.2057 6.09053 20.3233 6.23759 20.4409 6.38465C20.7057 6.82583 21.1174 6.97289 21.5586 6.97289C22.1468 6.97289 22.5586 6.73759 22.5586 6.32583C22.5586 6.0023 22.3527 5.79642 21.8233 5.64936L21.1174 5.47289C20.1174 5.20818 19.6762 4.64936 19.6762 3.94347C19.6762 2.97289 20.5586 2.41406 21.5586 2.41406C22.2939 2.44347 22.9409 2.73759 23.2645 3.23759Z" fill="#414042"/>
<path d="M28.0887 3.23759C28.1475 3.32583 28.2358 3.44347 28.2358 3.61994C28.2358 3.88465 28.0299 4.03171 27.7946 4.03171C27.6181 4.03171 27.471 3.97289 27.324 3.767C27.1181 3.5023 26.824 3.32583 26.4122 3.32583C25.8828 3.32583 25.5887 3.59053 25.5887 3.94347C25.5887 4.20818 25.7358 4.44347 26.2946 4.59053L26.9416 4.767C27.824 5.0023 28.471 5.38465 28.471 6.267C28.471 7.35524 27.4416 7.88465 26.3828 7.88465C25.471 7.88465 24.8534 7.5023 24.5887 7.06112C24.5299 7.0023 24.3828 6.79642 24.3828 6.53171C24.3828 6.32583 24.5299 6.09053 24.7946 6.09053C25.0299 6.09053 25.1475 6.23759 25.2652 6.38465C25.5299 6.82583 25.9416 6.97289 26.3828 6.97289C26.971 6.97289 27.3828 6.73759 27.3828 6.32583C27.3828 6.0023 27.1769 5.79642 26.6475 5.64936L25.9416 5.47289C24.9416 5.20818 24.5005 4.64936 24.5005 3.94347C24.5005 2.97289 25.3828 2.41406 26.3828 2.41406C27.1181 2.44347 27.7652 2.73759 28.0887 3.23759Z" fill="#414042"/>
<path d="M32.9118 1.11811C32.9118 1.3534 32.7353 1.52987 32.5 1.52987C32.4118 1.52987 32.2647 1.50046 32.1176 1.44164C31.9706 1.38281 31.8529 1.32399 31.6176 1.32399C31.0294 1.32399 30.8529 1.76517 30.8529 2.17693V2.52987H31.8824C32.1471 2.52987 32.3235 2.70634 32.3235 2.97105C32.3235 3.23575 32.1471 3.41222 31.8824 3.41222H30.8824V7.41223C30.8824 7.70634 30.6471 7.97105 30.3529 7.97105C30.0588 7.97105 29.7941 7.73575 29.7941 7.41223V3.38281H29.4412C29.1765 3.38281 29 3.20634 29 2.94164C29 2.67693 29.1765 2.50046 29.4412 2.50046H29.7941V2.11811C29.7941 0.706342 30.8235 0.382812 31.5 0.382812C31.9706 0.382812 32.3529 0.50046 32.6471 0.706342C32.8235 0.794577 32.9412 0.941636 32.9118 1.11811ZM34.5588 1.05928V7.38281C34.5588 7.67693 34.3235 7.94164 34 7.94164C33.6765 7.94164 33.4412 7.70634 33.4412 7.38281V1.05928C33.4412 0.765165 33.6765 0.50046 34 0.50046C34.2941 0.50046 34.5588 0.735754 34.5588 1.05928Z" fill="#414042"/>
<path d="M41.031 5.20611C41.031 7.05905 39.5016 7.94141 38.2957 7.94141C37.1193 7.94141 35.5898 7.02964 35.5898 5.20611C35.5898 3.38258 37.1193 2.44141 38.2957 2.44141C39.4722 2.44141 41.031 3.35317 41.031 5.20611ZM36.6781 5.20611C36.6781 6.38258 37.5016 7.00023 38.2957 7.00023C39.0898 7.00023 39.9428 6.38258 39.9428 5.20611C39.9428 4.02964 39.1193 3.41199 38.2957 3.41199C37.5016 3.38258 36.6781 4.02964 36.6781 5.20611Z" fill="#414042"/>
<path d="M49.3826 3.00023C49.3826 3.08846 49.3532 3.14729 49.3238 3.23552L47.8826 7.47082C47.7944 7.73552 47.5885 7.88258 47.3532 7.88258C47.1179 7.88258 46.9414 7.73552 46.8238 7.47082L45.4414 4.05905L44.0296 7.47082C43.9414 7.73552 43.7355 7.88258 43.5002 7.88258C43.2649 7.88258 43.0885 7.73552 42.9708 7.47082L41.5002 3.23552C41.4708 3.14729 41.4414 3.05905 41.4414 3.00023C41.4414 2.70611 41.6767 2.47082 41.9708 2.47082C42.1767 2.47082 42.3826 2.58846 42.4414 2.76494L43.5885 6.26494L44.9414 2.79435C45.0296 2.58847 45.2061 2.44141 45.4414 2.44141C45.6767 2.44141 45.8532 2.55905 45.9414 2.79435L47.2944 6.26494L48.4414 2.76494C48.5002 2.58846 48.7061 2.47082 48.912 2.47082C49.1473 2.47082 49.3826 2.70611 49.3826 3.00023Z" fill="#414042"/>
</g>
<defs>
<clipPath id="clip0_745_2878">
<rect width="50" height="8.23529" fill="white"/>
</clipPath>
</defs>
</svg>
