<svg width="50" height="11" viewBox="0 0 50 11" fill="none" xmlns="http://www.w3.org/2000/svg">
<g clip-path="url(#clip0_745_3138)">
<path d="M49.9997 4.83203V3.95271H48.9078V2.58569L48.871 2.59701L47.8454 2.91082L47.8251 2.91696V3.95275H46.2063V3.37573C46.2063 3.10704 46.2664 2.90143 46.3848 2.76431C46.5024 2.62883 46.6706 2.55996 46.8851 2.55996C47.0393 2.55996 47.1989 2.59628 47.3596 2.66791L47.3999 2.68591V1.75986L47.3809 1.75289C47.231 1.69901 47.0272 1.67188 46.7744 1.67188C46.4559 1.67188 46.1666 1.74119 45.9142 1.87855C45.6616 2.01611 45.463 2.21248 45.3238 2.46216C45.1852 2.71154 45.1148 2.99957 45.1148 3.31831V3.95271H44.3545V4.83203H45.1148V8.53647H46.2063V4.83203H47.8251V7.18614C47.8251 8.15567 48.2825 8.64699 49.1844 8.64699C49.3326 8.64699 49.4886 8.62963 49.6478 8.59563C49.81 8.5607 49.9204 8.52583 49.9854 8.48859L49.9998 8.48008V7.59262L49.9554 7.62198C49.8961 7.66145 49.8223 7.69371 49.7359 7.7177C49.649 7.74213 49.5764 7.75437 49.5202 7.75437C49.309 7.75437 49.1526 7.69744 49.0557 7.58508C48.9576 7.4717 48.9078 7.27344 48.9078 6.9961V4.83203H49.9997ZM41.9169 7.75451C41.5207 7.75451 41.2084 7.62314 40.9883 7.36438C40.7668 7.1043 40.6546 6.73351 40.6546 6.26241C40.6546 5.77636 40.7668 5.39595 40.9884 5.13128C41.2086 4.86836 41.518 4.73491 41.908 4.73491C42.2865 4.73491 42.5878 4.86236 42.8036 5.11392C43.0205 5.36679 43.1306 5.74415 43.1306 6.23586C43.1306 6.73361 43.0271 7.11596 42.8229 7.37173C42.6202 7.62556 42.3154 7.75451 41.9169 7.75451ZM41.9654 3.84228C41.2096 3.84228 40.6092 4.06376 40.1812 4.50057C39.7534 4.93743 39.5365 5.54197 39.5365 6.29758C39.5365 7.01526 39.7483 7.59253 40.1659 8.01309C40.5835 8.43379 41.1518 8.6469 41.8549 8.6469C42.5876 8.6469 43.176 8.42232 43.6038 7.97947C44.0317 7.5371 44.2484 6.93826 44.2484 6.20031C44.2484 5.47141 44.045 4.88983 43.6437 4.47208C43.2422 4.05413 42.6775 3.84228 41.9654 3.84228ZM37.7767 3.84228C37.2625 3.84228 36.8372 3.97379 36.5124 4.23309C36.1855 4.49394 36.0197 4.83605 36.0197 5.25003C36.0197 5.46522 36.0555 5.65636 36.1259 5.81849C36.1968 5.98115 36.3064 6.12437 36.4521 6.24457C36.5967 6.36379 36.8198 6.48868 37.1155 6.61574C37.3642 6.71804 37.5496 6.80457 37.6673 6.87277C37.7824 6.93961 37.8641 7.00679 37.9103 7.07224C37.9551 7.13627 37.9778 7.22392 37.9778 7.33207C37.9778 7.64002 37.7472 7.78987 37.2727 7.78987C37.0967 7.78987 36.8959 7.75311 36.676 7.68065C36.4576 7.60929 36.2515 7.50479 36.0649 7.37081L36.0196 7.33831V8.38919L36.0362 8.39693C36.1907 8.46823 36.3854 8.52835 36.6149 8.57565C36.844 8.623 37.0521 8.64709 37.2329 8.64709C37.7908 8.64709 38.2401 8.51495 38.5679 8.2541C38.8979 7.99146 39.0651 7.64128 39.0651 7.21298C39.0651 6.90401 38.975 6.63905 38.7976 6.42536C38.6214 6.21342 38.3156 6.01883 37.889 5.84684C37.5492 5.71044 37.3315 5.59721 37.2417 5.51029C37.1551 5.42633 37.1111 5.30758 37.1111 5.15721C37.1111 5.02391 37.1654 4.91711 37.2768 4.83063C37.3891 4.74371 37.5453 4.6995 37.7413 4.6995C37.9232 4.6995 38.1093 4.72824 38.2943 4.78454C38.4792 4.84084 38.6416 4.91624 38.7772 5.00848L38.8218 5.03895V4.04209L38.8047 4.03474C38.6796 3.9811 38.5147 3.9352 38.3143 3.89795C38.1149 3.86095 37.934 3.84228 37.7767 3.84228ZM33.1742 7.75451C32.7781 7.75451 32.4656 7.62314 32.2455 7.36438C32.024 7.1043 31.912 6.73361 31.912 6.26241C31.912 5.77636 32.0242 5.39595 32.2458 5.13128C32.4659 4.86836 32.7752 4.73491 33.1654 4.73491C33.5437 4.73491 33.845 4.86236 34.0609 5.11392C34.2778 5.36679 34.3878 5.74415 34.3878 6.23586C34.3878 6.73361 34.2843 7.11596 34.0802 7.37173C33.8775 7.62556 33.5728 7.75451 33.1742 7.75451ZM33.2228 3.84228C32.4668 3.84228 31.8664 4.06376 31.4386 4.50057C31.0108 4.93743 30.7938 5.54197 30.7938 6.29758C30.7938 7.01555 31.0056 7.59253 31.4232 8.01309C31.8408 8.43379 32.4091 8.6469 33.1122 8.6469C33.8448 8.6469 34.4334 8.42232 34.8612 7.97947C35.2889 7.5371 35.5058 6.93826 35.5058 6.20031C35.5058 5.47141 35.3023 4.88983 34.9009 4.47208C34.4993 4.05413 33.9347 3.84228 33.2228 3.84228ZM29.1369 4.74652V3.95271H28.0587V8.53638H29.1369V6.19165C29.1369 5.79296 29.2273 5.46541 29.4057 5.21801C29.5818 4.97356 29.8165 4.84969 30.103 4.84969C30.2001 4.84969 30.3091 4.8657 30.4272 4.89738C30.5441 4.92886 30.6287 4.96306 30.6786 4.99905L30.7239 5.03189V3.94487L30.7065 3.93737C30.6061 3.89471 30.464 3.87319 30.2843 3.87319C30.0133 3.87319 29.7708 3.96025 29.5632 4.13167C29.3809 4.28233 29.2491 4.48891 29.1484 4.74652H29.1369ZM26.1278 3.84228C25.6331 3.84228 25.1919 3.94835 24.8166 4.15745C24.4406 4.36702 24.1497 4.66623 23.9519 5.04669C23.7549 5.42623 23.6548 5.86957 23.6548 6.36399C23.6548 6.79707 23.7518 7.19451 23.9435 7.54479C24.1353 7.89565 24.4067 8.17014 24.7503 8.36051C25.0934 8.55064 25.49 8.64704 25.9291 8.64704C26.4415 8.64704 26.879 8.5446 27.2298 8.34257L27.2439 8.33444V7.34663L27.1986 7.37971C27.0397 7.49545 26.8622 7.58784 26.6711 7.65439C26.4805 7.7209 26.3068 7.75451 26.1544 7.75451C25.7314 7.75451 25.3917 7.62213 25.1452 7.36114C24.8981 7.0998 24.7729 6.73284 24.7729 6.27107C24.7729 5.8064 24.9035 5.43 25.161 5.15228C25.4177 4.87537 25.7579 4.73491 26.1722 4.73491C26.5266 4.73491 26.872 4.85491 27.1987 5.09191L27.2439 5.12475V4.08393L27.2293 4.07571C27.1064 4.00688 26.9387 3.95005 26.7305 3.90695C26.5232 3.86395 26.3204 3.84228 26.1278 3.84228ZM22.9123 3.95275H21.834V8.53638H22.9123V3.95275ZM22.3842 2.0001C22.2067 2.0001 22.0519 2.06051 21.9248 2.18022C21.7971 2.30027 21.7323 2.45142 21.7323 2.6298C21.7323 2.80537 21.7963 2.95377 21.9228 3.07062C22.0484 3.18714 22.2037 3.2462 22.3842 3.2462C22.5647 3.2462 22.7205 3.18714 22.8477 3.07082C22.9757 2.95377 23.0406 2.80542 23.0406 2.6298C23.0406 2.45766 22.9774 2.30806 22.853 2.18506C22.7286 2.0623 22.5708 2.0001 22.3842 2.0001ZM19.694 3.61457V8.53638H20.7943V2.14041H19.2714L17.3356 6.89115L15.457 2.14041H13.8721V8.53633H14.9061V3.61408H14.9416L16.9253 8.53638H17.7057L19.6585 3.61457H19.694Z" fill="#706D6E"/>
<path d="M5.07223 5.07614H0V0.00390625H5.07223V5.07614Z" fill="#F1511B"/>
<path d="M10.6727 5.07614H5.60059V0.00390625H10.6727V5.07614Z" fill="#80CC28"/>
<path d="M5.07209 10.6777H0V5.60547H5.07209V10.6777Z" fill="#00ADEF"/>
<path d="M10.6727 10.6777H5.60059V5.60547H10.6727V10.6777Z" fill="#FBBC09"/>
</g>
<defs>
<clipPath id="clip0_745_3138">
<rect width="50" height="10.68" fill="white"/>
</clipPath>
</defs>
</svg>
