<svg width="50" height="7" viewBox="0 0 50 7" fill="none" xmlns="http://www.w3.org/2000/svg">
<g clip-path="url(#clip0_745_3164)">
<path d="M21.5873 4.22689H24.8897L23.1435 1.41752L19.9386 6.49695H18.4801L22.3782 0.395426C22.5477 0.148956 22.8302 0 23.1435 0C23.4465 0 23.729 0.143782 23.8934 0.385177L27.8069 6.49695H26.3484L25.6602 5.36192H22.3167L21.5874 4.22689H21.5873ZM36.7383 5.36182V0.0615931H35.5006V5.88063C35.5006 6.03984 35.5622 6.19397 35.6803 6.31208C35.7984 6.43019 35.9576 6.49695 36.1322 6.49695H41.7766L42.506 5.36192H36.7382L36.7383 5.36182ZM16.2613 4.41167C17.4632 4.41167 18.439 3.44102 18.439 2.23922C18.439 1.03732 17.4632 0.0614955 16.2613 0.0614955H10.8464V6.49705H12.0838V1.19672H16.1792C16.7544 1.19672 17.2166 1.66419 17.2166 2.23941C17.2166 2.81454 16.7544 3.28191 16.1792 3.28191L12.6899 3.27683L16.3846 6.49705H18.1822L15.6964 4.41186H16.2614L16.2613 4.41167ZM3.22998 6.49695C1.45345 6.49705 0.0117188 5.05893 0.0117188 3.28191C0.0117188 1.50479 1.45345 0.0616907 3.22998 0.0616907H6.97047C8.7474 0.0616907 10.1881 1.50479 10.1881 3.28191C10.1881 5.05893 8.7474 6.49695 6.97038 6.49695H3.22998ZM6.88731 5.36192C8.03825 5.36192 8.97045 4.43227 8.97045 3.28181C8.97045 2.13145 8.03825 1.19672 6.88731 1.19672H3.31276C2.16221 1.19672 1.22953 2.13145 1.22953 3.28191C1.22953 4.43227 2.16221 5.36192 3.31266 5.36192H6.88721H6.88731ZM30.3903 6.49695C28.6134 6.49695 27.1701 5.05893 27.1701 3.28191C27.1701 1.50479 28.6134 0.0616907 30.3903 0.0616907H34.833L34.1087 1.19672H30.4725C29.322 1.19672 28.3873 2.13145 28.3873 3.28191C28.3873 4.43227 29.322 5.36192 30.4725 5.36192H34.9356L34.2063 6.49695H30.3903ZM45.526 5.36192C44.5759 5.36192 43.7695 4.7251 43.523 3.84679H48.813L49.5423 2.71176H43.523C43.7695 1.83862 44.5759 1.19672 45.526 1.19672H49.1572L49.8914 0.0614955H45.4437C43.6667 0.0614955 42.2235 1.50469 42.2235 3.28171C42.2235 5.05884 43.6667 6.49686 45.4437 6.49686H49.2598L49.989 5.36192H45.5259H45.526Z" fill="#EA1B22"/>
</g>
<defs>
<clipPath id="clip0_745_3164">
<rect width="50" height="6.54" fill="white"/>
</clipPath>
</defs>
</svg>
