<svg width="50" height="14" viewBox="0 0 50 14" fill="none" xmlns="http://www.w3.org/2000/svg">
<path d="M18.6997 3.27734H15.9338C15.8422 3.27729 15.7536 3.30993 15.684 3.3694C15.6144 3.42887 15.5683 3.51125 15.554 3.60169L14.4354 10.6941C14.4302 10.727 14.4323 10.7607 14.4414 10.7927C14.4505 10.8248 14.4664 10.8544 14.4881 10.8797C14.5098 10.905 14.5367 10.9253 14.567 10.9392C14.5972 10.9531 14.6302 10.9603 14.6635 10.9602H15.9839C16.0756 10.9603 16.1642 10.9276 16.2338 10.868C16.3034 10.8085 16.3495 10.726 16.3637 10.6355L16.6654 8.72254C16.6796 8.63209 16.7256 8.54967 16.7951 8.49013C16.8647 8.43059 16.9532 8.39784 17.0447 8.39779H17.9203C19.7423 8.39779 20.7938 7.51614 21.0684 5.76902C21.1921 5.00465 21.0736 4.40408 20.7157 3.98347C20.3226 3.52162 19.6254 3.27734 18.6997 3.27734ZM19.0187 5.8677C18.8675 6.86016 18.1092 6.86016 17.376 6.86016H16.9586L17.2514 5.00667C17.26 4.95245 17.2876 4.90306 17.3294 4.8674C17.3711 4.83174 17.4242 4.81214 17.4791 4.81214H17.6704C18.1699 4.81214 18.641 4.81214 18.8845 5.09686C19.0297 5.26672 19.0742 5.51908 19.0187 5.8677ZM26.9673 5.83575H25.6429C25.588 5.83575 25.5349 5.85534 25.4931 5.891C25.4514 5.92666 25.4237 5.97605 25.4152 6.03028L25.3565 6.40073L25.2639 6.26646C24.9772 5.85031 24.3378 5.71118 23.6996 5.71118C22.236 5.71118 20.9859 6.81972 20.7424 8.37474C20.6158 9.15043 20.7958 9.89215 21.2358 10.4094C21.6394 10.885 22.217 11.0832 22.9041 11.0832C24.0834 11.0832 24.7373 10.3249 24.7373 10.3249L24.6783 10.6929C24.673 10.7258 24.675 10.7595 24.684 10.7916C24.693 10.8236 24.7088 10.8534 24.7304 10.8788C24.752 10.9041 24.7789 10.9245 24.8091 10.9385C24.8393 10.9525 24.8723 10.9598 24.9056 10.9598H26.0986C26.1903 10.9599 26.2789 10.9272 26.3485 10.8676C26.4182 10.8081 26.4642 10.7256 26.4784 10.6351L27.1942 6.10186C27.1995 6.06903 27.1976 6.03544 27.1886 6.00343C27.1796 5.97141 27.1638 5.94173 27.1422 5.91642C27.1206 5.89112 27.0938 5.8708 27.0636 5.85687C27.0335 5.84294 27.0006 5.83574 26.9673 5.83575ZM25.1211 8.41356C24.9933 9.17024 24.3928 9.6782 23.6268 9.6782C23.2422 9.6782 22.9348 9.55485 22.7374 9.3211C22.5417 9.08895 22.4673 8.75854 22.5296 8.39051C22.6489 7.6403 23.2596 7.11576 24.0138 7.11576C24.3899 7.11576 24.6957 7.24072 24.8971 7.47651C25.0989 7.71471 25.179 8.04715 25.1211 8.41356ZM34.0214 5.83575H32.6904C32.6276 5.83585 32.5658 5.85126 32.5104 5.88065C32.4549 5.91003 32.4074 5.95251 32.3721 6.00439L30.5364 8.70839L29.7583 6.10995C29.7344 6.0307 29.6856 5.96124 29.6192 5.91186C29.5528 5.86247 29.4722 5.83579 29.3895 5.83575H28.0815C28.0448 5.83565 28.0086 5.84432 27.9759 5.86104C27.9433 5.87776 27.915 5.90205 27.8936 5.93188C27.8722 5.96171 27.8583 5.99622 27.8529 6.03254C27.8475 6.06886 27.8509 6.10594 27.8627 6.14068L29.3288 10.443L27.9505 12.3887C27.926 12.4232 27.9115 12.4637 27.9085 12.5059C27.9055 12.5481 27.9142 12.5904 27.9337 12.6279C27.9531 12.6655 27.9825 12.6971 28.0186 12.719C28.0548 12.741 28.0963 12.7527 28.1386 12.7527H29.4679C29.53 12.7527 29.5911 12.7378 29.6462 12.709C29.7012 12.6803 29.7484 12.6386 29.7838 12.5876L34.2106 6.19771C34.2346 6.16314 34.2487 6.12266 34.2513 6.08066C34.2539 6.03866 34.245 5.99674 34.2255 5.95945C34.206 5.92216 34.1767 5.89092 34.1407 5.86911C34.1047 5.8473 34.0634 5.83577 34.0214 5.83575Z" fill="#253B80"/>
<path d="M38.4282 3.27775H35.662C35.5705 3.27779 35.482 3.31048 35.4124 3.36994C35.3429 3.42939 35.2969 3.51172 35.2826 3.6021L34.164 10.6945C34.1588 10.7274 34.1607 10.761 34.1698 10.793C34.1788 10.825 34.1947 10.8547 34.2163 10.88C34.2379 10.9053 34.2647 10.9256 34.2949 10.9395C34.3251 10.9534 34.358 10.9606 34.3913 10.9606H35.8108C35.8748 10.9605 35.9367 10.9376 35.9854 10.8959C36.034 10.8543 36.0662 10.7966 36.0761 10.7334L36.3936 8.72295C36.4077 8.63249 36.4537 8.55007 36.5233 8.49053C36.5928 8.43099 36.6814 8.39825 36.7729 8.39819H37.6481C39.4704 8.39819 40.5216 7.51654 40.7966 5.76942C40.9207 5.00505 40.8014 4.40448 40.4435 3.98388C40.0508 3.52202 39.354 3.27775 38.4282 3.27775ZM38.7473 5.8681C38.5965 6.86056 37.8382 6.86056 37.1046 6.86056H36.6876L36.9808 5.00708C36.9892 4.95285 37.0167 4.90342 37.0584 4.86774C37.1001 4.83206 37.1532 4.81248 37.2081 4.81255H37.3994C37.8984 4.81255 38.37 4.81255 38.6135 5.09726C38.7587 5.26712 38.8027 5.51948 38.7473 5.8681ZM46.6955 5.83615H45.3718C45.3169 5.836 45.2638 5.85555 45.2221 5.89125C45.1804 5.92694 45.1529 5.97642 45.1446 6.03068L45.0859 6.40113L44.9929 6.26687C44.7062 5.85071 44.0672 5.71159 43.429 5.71159C41.9654 5.71159 40.7157 6.82012 40.4722 8.37514C40.346 9.15083 40.5252 9.89255 40.9652 10.4098C41.3696 10.8854 41.9463 11.0836 42.6335 11.0836C43.8128 11.0836 44.4667 10.3253 44.4667 10.3253L44.4077 10.6933C44.4024 10.7263 44.4044 10.76 44.4134 10.7922C44.4225 10.8243 44.4384 10.8541 44.4601 10.8795C44.4818 10.9049 44.5087 10.9252 44.539 10.9392C44.5694 10.9531 44.6024 10.9603 44.6358 10.9602H45.8284C45.92 10.9602 46.0085 10.9274 46.0781 10.8679C46.1476 10.8084 46.1936 10.7259 46.2078 10.6355L46.924 6.10226C46.9291 6.06933 46.927 6.03569 46.9178 6.00364C46.9087 5.9716 46.8927 5.94192 46.871 5.91664C46.8493 5.89136 46.8224 5.87107 46.7921 5.85718C46.7618 5.84329 46.7288 5.83611 46.6955 5.83615ZM44.8493 8.41397C44.7223 9.17065 44.1209 9.67861 43.355 9.67861C42.9712 9.67861 42.663 9.55526 42.4656 9.3215C42.2699 9.08936 42.1963 8.75894 42.2578 8.39091C42.3779 7.6407 42.9877 7.11616 43.742 7.11616C44.1181 7.11616 44.4239 7.24113 44.6253 7.47691C44.8279 7.71512 44.908 8.04755 44.8493 8.41397ZM48.257 3.47228L47.1218 10.6945C47.1166 10.7274 47.1186 10.761 47.1276 10.793C47.1366 10.825 47.1525 10.8547 47.1741 10.88C47.1957 10.9053 47.2225 10.9256 47.2527 10.9395C47.2829 10.9534 47.3158 10.9606 47.3491 10.9606H48.4904C48.68 10.9606 48.841 10.8231 48.8701 10.6359L49.9896 3.54386C49.9948 3.51099 49.9928 3.47738 49.9838 3.44534C49.9747 3.41331 49.9589 3.38361 49.9373 3.35828C49.9157 3.33296 49.8889 3.31261 49.8587 3.29864C49.8285 3.28467 49.7956 3.2774 49.7623 3.27734H48.4843C48.4294 3.27754 48.3764 3.29726 48.3348 3.33298C48.2931 3.3687 48.2656 3.41808 48.257 3.47228Z" fill="#179BD7"/>
<path d="M2.9499 12.3375L3.16141 10.994L2.69025 10.983H0.44043L2.00394 1.06933C2.0086 1.03903 2.02398 1.01143 2.04729 0.99153C2.0706 0.971634 2.10029 0.960778 2.13093 0.960939H5.92445C7.18384 0.960939 8.05295 1.22301 8.50672 1.74027C8.71945 1.98293 8.85493 2.2365 8.92044 2.51556C8.9892 2.80836 8.99041 3.15819 8.92328 3.58486L8.91842 3.616V3.88939L9.13115 4.00991C9.29355 4.09219 9.43953 4.20349 9.56187 4.33831C9.74386 4.54578 9.86155 4.80946 9.91129 5.12208C9.96265 5.4436 9.94567 5.82619 9.86155 6.25933C9.76448 6.75759 9.60757 7.19154 9.39565 7.54662C9.20867 7.86472 8.95727 8.14023 8.65757 8.35547C8.37609 8.55526 8.04163 8.70692 7.66349 8.80398C7.29708 8.89943 6.8793 8.94755 6.42109 8.94755H6.12586C5.91475 8.94755 5.7097 9.02359 5.54874 9.15988C5.38801 9.29763 5.28138 9.48795 5.24785 9.69696L5.2256 9.81788L4.85191 12.1858L4.83493 12.2728C4.83048 12.3003 4.8228 12.314 4.81147 12.3233C4.8005 12.3323 4.78682 12.3373 4.77265 12.3375H2.9499Z" fill="#253B80"/>
<path d="M9.33216 3.64844C9.32084 3.72083 9.3079 3.79484 9.29334 3.87087C8.79306 6.43939 7.08153 7.3267 4.8956 7.3267H3.78262C3.51529 7.3267 3.29003 7.52082 3.24837 7.78451L2.67854 11.3985L2.51717 12.4229C2.51074 12.4635 2.5132 12.5051 2.52436 12.5447C2.53553 12.5842 2.55515 12.621 2.58186 12.6522C2.60857 12.6835 2.64175 12.7087 2.6791 12.7259C2.71646 12.7431 2.75711 12.7521 2.79825 12.7521H4.77225C5.00601 12.7521 5.20458 12.5822 5.24139 12.3517L5.2608 12.2514L5.63247 9.89278L5.65633 9.76337C5.69273 9.53204 5.8917 9.36218 6.12546 9.36218H6.42069C8.33323 9.36218 9.83042 8.58568 10.268 6.33868C10.4508 5.40001 10.3562 4.61623 9.87248 4.065C9.71917 3.89448 9.53607 3.75332 9.33216 3.64844Z" fill="#179BD7"/>
<path d="M8.80851 3.44143C8.64877 3.39522 8.48627 3.35915 8.32198 3.33345C7.99736 3.28356 7.66927 3.25962 7.34084 3.26186H4.3675C4.25434 3.26178 4.14489 3.30217 4.05892 3.37575C3.97296 3.44933 3.91615 3.55124 3.89877 3.66305L3.26625 7.6693L3.24805 7.78618C3.26775 7.65865 3.33245 7.54238 3.43044 7.45841C3.52844 7.37443 3.65325 7.32831 3.78229 7.32837H4.89528C7.0812 7.32837 8.79274 6.44066 9.29301 3.87255C9.30797 3.79651 9.32051 3.7225 9.33184 3.65011C9.19983 3.58089 9.06224 3.52285 8.92053 3.47661C8.88338 3.46429 8.84604 3.45256 8.80851 3.44143Z" fill="#222D65"/>
<path d="M3.89886 3.66056C3.91609 3.54871 3.97287 3.44675 4.05888 3.37321C4.14489 3.29967 4.25443 3.25942 4.36759 3.25977H7.34094C7.69319 3.25977 8.02199 3.28282 8.32208 3.33135C8.52514 3.36327 8.7254 3.411 8.92103 3.47411C9.06865 3.52305 9.20575 3.58088 9.33233 3.64761C9.48116 2.69842 9.33112 2.05215 8.8179 1.46695C8.25211 0.822694 7.23093 0.546875 5.92423 0.546875H2.13071C1.86379 0.546875 1.6361 0.741 1.59484 1.00509L0.0147499 11.0207C0.00739012 11.0672 0.0101903 11.1148 0.0229578 11.1601C0.0357253 11.2054 0.0581572 11.2474 0.0887104 11.2832C0.119264 11.319 0.157213 11.3478 0.199948 11.3676C0.242683 11.3873 0.28919 11.3976 0.336269 11.3976H2.6783L3.26634 7.6668L3.89886 3.66056Z" fill="#253B80"/>
</svg>
