<svg width="50" height="8" viewBox="0 0 50 8" fill="none" xmlns="http://www.w3.org/2000/svg">
<g clip-path="url(#clip0_745_3118)">
<path fill-rule="evenodd" clip-rule="evenodd" d="M12.339 2.19056C11.8192 2.19056 11.3736 2.3762 11.0023 2.67323V2.26482H9.73998V7.05436H11.0395V4.00985C11.2251 3.74995 11.6707 3.41579 12.2276 3.41579C12.4132 3.41579 12.5989 3.45292 12.7474 3.49005V2.26482C12.5989 2.22769 12.4503 2.19056 12.339 2.19056ZM1.2005 5.56923C1.53465 5.86626 2.05445 6.0519 2.49998 6.0519C2.83414 6.0519 3.13116 5.86626 3.13116 5.64349C3.13116 4.90092 0.792086 5.16082 0.792086 3.63856C0.792086 2.71036 1.68316 2.15344 2.61137 2.15344C3.24255 2.15344 3.91086 2.37621 4.24501 2.6361L3.65096 3.56431C3.39106 3.41579 3.09403 3.23015 2.72275 3.23015C2.35147 3.23015 2.09157 3.37867 2.09157 3.63856C2.09157 4.26974 4.43065 4.00985 4.43065 5.68062C4.43065 6.60882 3.53957 7.16574 2.53711 7.16574C1.8688 7.16574 1.16337 6.94297 0.606445 6.53456L1.2005 5.56923ZM9.18306 4.6039C9.18306 3.26728 8.25486 2.15344 6.91824 2.15344C5.50737 2.15344 4.57916 3.34154 4.57916 4.64103C4.57916 6.16328 5.65588 7.12862 7.06675 7.12862C7.80932 7.12862 8.55188 6.83159 9.03455 6.27467L8.29198 5.5321C8.06921 5.792 7.62368 6.08903 7.10388 6.08903C6.43557 6.08903 5.87865 5.60636 5.80439 4.93805H9.1088C9.18306 4.86379 9.18306 4.75241 9.18306 4.6039ZM5.91578 4.04697C5.99003 3.60144 6.43557 3.19303 6.95537 3.19303C7.47516 3.19303 7.84645 3.60144 7.9207 4.04697H5.91578ZM15.7176 5.19795L17.0171 2.26482H18.3537L16.1632 7.05436H15.2721L13.1187 2.26482H14.4181L15.7176 5.19795ZM19.4304 0C19.9131 0 20.2844 0.371282 20.2844 0.816821C20.2844 1.29949 19.9131 1.63364 19.4304 1.63364C18.9478 1.63364 18.6136 1.26236 18.6136 0.816821C18.6136 0.334154 18.9478 0 19.4304 0ZM18.7993 2.26482H20.0988V7.05436H18.7993V2.26482ZM25.3338 6.0519C24.7769 6.79446 24.0715 7.12862 23.1804 7.12862C21.6953 7.12862 20.6185 6.01477 20.6185 4.64103C20.6185 3.23015 21.7324 2.15344 23.1804 2.15344C24.0343 2.15344 24.7398 2.56185 25.1853 3.11877L24.3685 3.89846C24.1086 3.56431 23.7373 3.34154 23.2918 3.34154C22.5492 3.34154 21.9923 3.93559 21.9923 4.64103C21.9923 5.38359 22.5121 5.94051 23.2918 5.94051C23.8116 5.94051 24.22 5.64349 24.4428 5.30933L25.3338 6.0519ZM29.9749 6.27467C29.4922 6.83159 28.7496 7.12862 28.0071 7.12862C26.5962 7.12862 25.5195 6.16328 25.5195 4.64103C25.5195 3.30441 26.4105 2.15344 27.8585 2.15344C29.158 2.15344 30.1234 3.26728 30.1234 4.6039C30.1234 4.75241 30.1234 4.86379 30.0862 4.97518H26.7447C26.819 5.64349 27.3759 6.12615 28.0442 6.12615C28.564 6.12615 29.0095 5.82913 29.2323 5.56923L29.9749 6.27467ZM28.7867 4.04697C28.7496 3.63856 28.3783 3.19303 27.8214 3.19303C27.3016 3.19303 26.8561 3.60144 26.7818 4.04697H28.7867ZM30.606 7.05436V2.26482H31.8313V2.67323C32.2025 2.3762 32.6481 2.19056 33.1679 2.19056C33.8362 2.19056 34.4302 2.48759 34.8386 2.97026C35.1357 3.34154 35.3584 3.82421 35.3584 4.64103V7.09149H34.059V4.52964C34.059 4.04697 33.9476 3.78708 33.7619 3.63856C33.5763 3.45292 33.3535 3.34154 33.0194 3.34154C32.4996 3.34154 32.054 3.67569 31.8313 3.93559V7.05436H30.606Z" fill="#293E40"/>
<path fill-rule="evenodd" clip-rule="evenodd" d="M38.6254 2.15234C37.0661 2.15234 35.8408 3.37757 35.8408 4.93696C35.8408 5.75378 36.175 6.49634 36.6948 7.01614C36.8804 7.20178 37.2146 7.20178 37.4373 7.05327C37.7344 6.79337 38.1799 6.64486 38.6254 6.64486C39.1081 6.64486 39.4794 6.79337 39.8135 7.05327C40.0363 7.23891 40.3333 7.20178 40.5561 6.97901C41.0759 6.45922 41.4101 5.75378 41.4101 4.93696C41.3729 3.4147 40.1477 2.15234 38.6254 2.15234ZM38.5883 6.38496C37.7344 6.38496 37.1774 5.75378 37.1774 4.97409C37.1774 4.19439 37.7344 3.56322 38.5883 3.56322C39.4423 3.56322 39.9992 4.19439 39.9992 4.97409C39.9992 5.75378 39.4423 6.38496 38.5883 6.38496Z" fill="#81B5A1"/>
<path fill-rule="evenodd" clip-rule="evenodd" d="M43.935 7.05516H42.9697L41.0762 2.26562H42.3385L43.3781 5.01311L44.4177 2.26562H45.4573L46.4598 5.01311L47.4993 2.26562H48.7988L46.9053 7.05516H45.94L44.9004 4.3448L43.935 7.05516Z" fill="#293E40"/>
<path d="M48.7989 6.49628H48.6875V6.68192H48.6133V6.125H48.836C48.9474 6.125 48.9846 6.19926 48.9846 6.31064C48.9846 6.3849 48.9474 6.42203 48.9103 6.45915L49.0588 6.64479H48.9474L48.7989 6.49628ZM48.6875 6.34777H48.836C48.9103 6.34777 48.9103 6.31064 48.9103 6.27351C48.9103 6.19926 48.8732 6.19926 48.836 6.19926H48.6875V6.34777Z" fill="#293E40"/>
<path d="M48.7991 5.90238C49.0962 5.90238 49.3189 6.12515 49.3189 6.42218C49.3189 6.7192 49.0962 6.94197 48.7991 6.94197C48.5021 6.94197 48.2793 6.7192 48.2793 6.42218C48.2793 6.12515 48.5392 5.90238 48.7991 5.90238ZM48.7991 5.82812C48.465 5.82812 48.2051 6.12515 48.2051 6.42218C48.2051 6.75633 48.5021 7.01623 48.7991 7.01623C49.1333 7.01623 49.3932 6.7192 49.3932 6.42218C49.3932 6.12515 49.0962 5.82812 48.7991 5.82812Z" fill="#293E40"/>
</g>
<defs>
<clipPath id="clip0_745_3118">
<rect width="50" height="7.24" fill="white"/>
</clipPath>
</defs>
</svg>
