<svg width="107" height="108" viewBox="0 0 107 108" fill="none" xmlns="http://www.w3.org/2000/svg">
<g opacity="0.2">
<path d="M41.5146 9.32386L41.5143 9.32409L13.2523 30.8507C13.2522 30.8508 13.2521 30.8509 13.252 30.8509C13.034 31.0175 12.8666 31.2414 12.7686 31.4976C12.6705 31.7539 12.6457 32.0325 12.6968 32.3021C12.748 32.5717 12.8732 32.8218 13.0584 33.0244C13.2435 33.2268 13.4812 33.3738 13.745 33.4489L41.5146 9.32386ZM41.5146 9.32386C41.732 9.15803 41.9911 9.0557 42.2631 9.02821C42.5351 9.00072 42.8094 9.04916 43.0555 9.16814C43.3017 9.28712 43.51 9.472 43.6575 9.70223C43.8049 9.93247 43.8856 10.1991 43.8907 10.4724L43.8907 10.4732L44.0051 16.1232L19.217 35.0008L13.7454 33.449L41.5146 9.32386ZM81.6561 86.9556C71.3224 71.4514 69.4224 55.1122 67.3431 37.2312C67.2605 36.5208 67.1776 35.808 67.0939 35.0927L67.0537 34.7496L66.7186 34.6657L51.1946 30.7829L50.9615 30.7246L50.7703 30.8702L31.6335 45.4439L31.4424 45.5895L31.4366 45.8297L31.0527 61.8273L31.0444 62.1727L31.3645 62.3026C32.0302 62.5728 32.6938 62.8416 33.3551 63.1095C50.0414 69.8683 65.2859 76.043 77.4897 90.1286L72.0699 94.2591C60.652 81.6078 46.8941 75.4966 24.0188 66.8474L24.6104 42.1034L49.4216 23.2083L73.4324 29.2162C75.6929 53.568 77.9223 68.4589 87.0833 82.8256L81.6561 86.9556ZM60.3769 63.3524L60.2619 63.4447C59.5171 64.0088 58.672 64.4273 57.771 64.6778C56.8222 64.9416 55.8304 65.0138 54.8533 64.8902C53.8763 64.7666 52.9337 64.4496 52.0805 63.9578C51.2272 63.466 50.4805 62.8092 49.8838 62.0257C49.2872 61.2422 48.8525 60.3478 48.6052 59.3945C48.3579 58.4412 48.303 57.4483 48.4436 56.4735C48.5841 55.4988 48.9174 54.5618 49.424 53.7173C49.9302 52.8733 50.5993 52.1385 51.3924 51.5557C52.9601 50.4243 54.9078 49.9497 56.8203 50.2332C58.7336 50.5168 60.4603 51.5366 61.6324 53.0752C62.8045 54.6137 63.3292 56.5492 63.0947 58.4691C62.8602 60.389 61.8849 62.1413 60.3769 63.3524Z" stroke="white"/>
</g>
</svg>
