<svg width="48" height="48" viewBox="0 0 48 48" fill="none" xmlns="http://www.w3.org/2000/svg">
<path fill-rule="evenodd" clip-rule="evenodd" d="M20.6457 13.0545C21.9354 11.711 23.7321 10.8768 25.7182 10.8768C28.3583 10.8768 30.6624 12.3493 31.8891 14.5353C32.9866 14.0451 34.1754 13.7924 35.3775 13.7938C40.1398 13.7938 44 17.6882 44 22.4929C44 27.2976 40.1398 31.192 35.3775 31.192C34.7952 31.192 34.2274 31.1338 33.6784 31.0231C32.5982 32.9493 30.5386 34.2512 28.1759 34.2512C27.1868 34.2512 26.251 34.0237 25.4185 33.6164C24.3231 36.1931 21.7713 37.999 18.7978 37.999C15.7014 37.999 13.0618 36.0391 12.049 33.2914C11.5978 33.3866 11.1378 33.4346 10.6767 33.4344C6.98924 33.4349 4.00002 30.4146 4.00002 26.6887C3.99725 25.5079 4.30403 24.347 4.88977 23.3218C5.47551 22.2965 6.31976 21.4427 7.33834 20.8454C6.91577 19.8717 6.69835 18.8214 6.69964 17.7599C6.69964 13.4745 10.178 10.001 14.4687 10.001C15.6639 9.99959 16.8434 10.2745 17.9149 10.8041C18.9864 11.3338 19.921 12.104 20.6457 13.0545Z" fill="#00A1E0"/>
<path fill-rule="evenodd" clip-rule="evenodd" d="M9.79449 24.5203L9.95636 24.071C9.98217 23.994 10.0404 24.0194 10.064 24.0338C10.109 24.0605 10.1414 24.0846 10.1996 24.1187C10.6764 24.4201 11.1183 24.4232 11.2561 24.4232C11.6131 24.4232 11.8344 24.2342 11.8344 23.9791V23.966C11.8344 23.6887 11.4932 23.5837 11.099 23.4629L11.0115 23.4349C10.4704 23.2809 9.89161 23.0583 9.89161 22.3732V22.3592C9.89161 21.7091 10.4161 21.2554 11.1668 21.2554L11.2491 21.2546C11.69 21.2546 12.1161 21.3828 12.425 21.57C12.453 21.5875 12.4801 21.6199 12.4644 21.6627L12.2981 22.112C12.2688 22.1886 12.1888 22.1378 12.1888 22.1378C11.8665 21.9699 11.51 21.8785 11.1467 21.8705C10.8282 21.8705 10.6235 22.0394 10.6235 22.2686V22.2831C10.6235 22.5504 10.9743 22.6645 11.3812 22.7971L11.4512 22.819C11.9906 22.9896 12.5663 23.2258 12.5663 23.8755V23.889C12.5663 24.5912 12.0562 25.0273 11.236 25.0273C10.833 25.0273 10.4476 24.9652 10.0399 24.7486C9.96292 24.704 9.8868 24.6655 9.81155 24.6108C9.80368 24.5995 9.76912 24.5859 9.79406 24.5203H9.79449ZM21.8061 24.5203L21.9684 24.071C21.992 23.9975 22.0607 24.0246 22.0756 24.0338C22.1202 24.0614 22.1534 24.0846 22.2112 24.1187C22.6889 24.4201 23.1299 24.4232 23.269 24.4232C23.6246 24.4232 23.8464 24.2342 23.8464 23.9791V23.966C23.8464 23.6887 23.5056 23.5837 23.1115 23.4629L23.024 23.4349C22.482 23.2809 21.9032 23.0583 21.9032 22.3732V22.3592C21.9032 21.7091 22.4282 21.2554 23.1789 21.2554L23.2607 21.2546C23.7016 21.2546 24.1282 21.3828 24.4375 21.57C24.4646 21.5875 24.4921 21.6199 24.4768 21.6627C24.4615 21.7025 24.325 22.07 24.3106 22.112C24.2804 22.1886 24.2012 22.1378 24.2012 22.1378C23.8789 21.9699 23.5221 21.8784 23.1587 21.8705C22.8403 21.8705 22.6355 22.0394 22.6355 22.2686V22.2831C22.6355 22.5504 22.9859 22.6645 23.3932 22.7971L23.4632 22.819C24.0026 22.9896 24.5779 23.2258 24.5779 23.8755V23.889C24.5779 24.5912 24.0682 25.0273 23.248 25.0273C22.8446 25.0273 22.4592 24.9652 22.0519 24.7486C21.9749 24.704 21.8988 24.6655 21.8231 24.6108C21.8153 24.5995 21.7807 24.5859 21.8061 24.5203V24.5203ZM30.6911 22.4077C30.7584 22.6335 30.7917 22.8815 30.7917 23.1436C30.7917 23.406 30.7584 23.6532 30.6911 23.879C30.6295 24.0966 30.5237 24.2993 30.3805 24.4743C30.2369 24.6444 30.0569 24.7798 29.8538 24.8707C29.6438 24.9669 29.397 25.0151 29.1197 25.0151C28.8423 25.0151 28.5947 24.9669 28.3856 24.8707C28.1825 24.7798 28.0025 24.6444 27.8589 24.4743C27.7158 24.2993 27.6099 24.0968 27.5479 23.8794C27.4791 23.6402 27.4452 23.3924 27.4472 23.1436C27.4472 22.8811 27.4809 22.6335 27.5479 22.4077C27.6152 22.1803 27.7198 21.9799 27.8585 21.8128C28.0024 21.6421 28.1824 21.5055 28.3856 21.4129C28.5952 21.3149 28.8415 21.2655 29.1197 21.2655C29.3979 21.2655 29.6442 21.3149 29.8538 21.4129C30.0629 21.5105 30.2405 21.6448 30.3805 21.8128C30.5196 21.9799 30.6246 22.1803 30.6911 22.4077ZM30.0069 23.1436C30.0069 22.7468 29.9334 22.4349 29.7873 22.2161C29.6429 21.9991 29.4242 21.8942 29.1197 21.8942C28.8152 21.8942 28.5982 21.9991 28.4556 22.2161C28.3126 22.4349 28.2395 22.7468 28.2395 23.1436C28.2395 23.5399 28.3126 23.854 28.4565 24.0745C28.5982 24.2941 28.8152 24.4004 29.1197 24.4004C29.4242 24.4004 29.6429 24.2937 29.7873 24.0745C29.9325 23.854 30.0069 23.5399 30.0069 23.1436V23.1436ZM36.3161 24.2941L36.484 24.7587C36.5059 24.8156 36.4565 24.8405 36.4565 24.8405C36.1971 24.9411 35.837 25.0129 35.4866 25.0129C34.8925 25.0129 34.4376 24.8418 34.134 24.5041C33.8321 24.1672 33.6781 23.7092 33.6781 23.1409C33.6781 22.878 33.7162 22.6291 33.7905 22.4038C33.8649 22.1763 33.9765 21.976 34.1235 21.8088C34.2761 21.637 34.4643 21.5006 34.6751 21.409C34.8938 21.3114 35.1511 21.2624 35.4381 21.2624C35.6319 21.2624 35.8042 21.2743 35.9521 21.2961C36.11 21.3206 36.3204 21.3775 36.4092 21.4121C36.4254 21.4182 36.4705 21.4401 36.4521 21.493C36.3874 21.6754 36.3432 21.7944 36.2832 21.9607C36.257 22.0315 36.2036 22.0079 36.2036 22.0079C35.9783 21.937 35.7622 21.9047 35.4801 21.9047C35.141 21.9047 34.8864 22.0175 34.7202 22.2384C34.5522 22.4611 34.4581 22.7529 34.4568 23.1409C34.4555 23.5666 34.5622 23.882 34.7512 24.0771C34.9398 24.2718 35.2031 24.3702 35.5347 24.3702C35.669 24.3702 35.7959 24.3615 35.9101 24.3435C36.023 24.3256 36.1288 24.2906 36.2286 24.2517C36.2286 24.2517 36.2929 24.2276 36.3161 24.2941ZM39.8202 22.2787C39.9694 22.801 39.8915 23.2521 39.8889 23.277C39.8832 23.3365 39.8219 23.3374 39.8219 23.3374L37.5038 23.3356C37.5182 23.6878 37.6026 23.9371 37.7733 24.1064C37.9408 24.2722 38.2068 24.3785 38.5668 24.379C39.1172 24.3803 39.3521 24.2696 39.5188 24.2079C39.5188 24.2079 39.5822 24.1852 39.6063 24.2482L39.7572 24.673C39.7878 24.7443 39.7633 24.7692 39.7375 24.7836C39.5923 24.8637 39.2401 25.0133 38.5699 25.0151C38.2449 25.0164 37.9618 24.97 37.7286 24.8794C37.5071 24.7974 37.3075 24.6652 37.1455 24.4932C36.9907 24.3244 36.8757 24.123 36.8091 23.9039C36.7373 23.6638 36.7021 23.4143 36.7045 23.1637C36.7045 22.9012 36.7382 22.6519 36.806 22.4239C36.8738 22.1943 36.9793 21.9917 37.1197 21.8215C37.2652 21.6478 37.4477 21.5088 37.6538 21.4147C37.8664 21.3145 38.1298 21.2655 38.4194 21.2655C38.6675 21.2655 38.8941 21.3189 39.0826 21.4003C39.2278 21.4624 39.374 21.5748 39.5236 21.7358C39.6181 21.8373 39.762 22.0595 39.8202 22.2787V22.2787ZM37.5147 22.763H39.1684C39.1513 22.5504 39.1097 22.3596 39.0144 22.2161C38.8691 21.9991 38.6688 21.8797 38.3647 21.8797C38.0602 21.8797 37.8441 21.9991 37.7011 22.2161C37.6075 22.3596 37.5471 22.5425 37.5143 22.763H37.5147ZM21.2518 22.2787C21.4005 22.801 21.324 23.2521 21.3214 23.277C21.3152 23.3365 21.254 23.3374 21.254 23.3374L18.9354 23.3356C18.9503 23.6878 19.0343 23.9371 19.2053 24.1064C19.3729 24.2722 19.6384 24.3785 19.9985 24.379C20.5488 24.3803 20.7846 24.2696 20.9508 24.2079C20.9508 24.2079 21.0143 24.1852 21.0379 24.2482L21.1892 24.673C21.2199 24.7443 21.1954 24.7692 21.17 24.7836C21.0239 24.8637 20.6713 25.0133 20.002 25.0151C19.6765 25.0164 19.3934 24.97 19.1607 24.8794C18.9391 24.7973 18.7394 24.6651 18.5771 24.4932C18.4227 24.3242 18.3081 24.1229 18.2416 23.9039C18.1693 23.6639 18.1338 23.4143 18.1362 23.1637C18.1362 22.9012 18.1703 22.6519 18.2376 22.4239C18.3007 22.204 18.4075 21.9991 18.5517 21.8215C18.6973 21.648 18.8796 21.509 19.0855 21.4147C19.2989 21.3145 19.5623 21.2655 19.851 21.2655C20.0792 21.265 20.3052 21.3108 20.5151 21.4003C20.6603 21.4624 20.8065 21.5748 20.9556 21.7358C21.0501 21.8373 21.1941 22.0595 21.2518 22.2787V22.2787ZM18.9459 22.763H20.6004C20.5829 22.5504 20.5414 22.3596 20.4464 22.2161C20.3021 21.9991 20.1008 21.8797 19.7968 21.8797C19.4923 21.8797 19.2758 21.9991 19.1336 22.2161C19.0391 22.3596 18.9792 22.5425 18.9455 22.763H18.9459ZM14.8573 22.6523C14.8573 22.6523 15.0402 22.6685 15.2397 22.6973V22.5994C15.2397 22.2901 15.1754 22.1444 15.0489 22.0468C14.9194 21.948 14.7261 21.8968 14.4758 21.8968C14.4758 21.8968 13.9115 21.8898 13.4653 22.1321C13.4447 22.1444 13.4277 22.1514 13.4277 22.1514C13.4277 22.1514 13.3717 22.1711 13.3516 22.1138L13.1875 21.6728C13.1621 21.6094 13.2081 21.5805 13.2081 21.5805C13.4167 21.4178 13.9225 21.3193 13.9225 21.3193C14.1277 21.2832 14.3357 21.2641 14.5441 21.262C15.0069 21.262 15.3652 21.3696 15.6089 21.5827C15.853 21.7966 15.9772 22.1413 15.9772 22.6059L15.9786 24.7268C15.9786 24.7268 15.9834 24.788 15.9252 24.802C15.9252 24.802 15.8399 24.8256 15.7633 24.8436C15.6859 24.8615 15.4068 24.9184 15.1789 24.9569C14.9461 24.9959 14.7105 25.0155 14.4745 25.0155C14.2492 25.0155 14.0428 24.9945 13.8608 24.9529C13.6912 24.9174 13.5306 24.8478 13.3887 24.7482C13.2595 24.6543 13.1557 24.5297 13.0869 24.3855C13.0156 24.2399 12.9797 24.0618 12.9797 23.8562C12.9797 23.6545 13.0221 23.4747 13.1039 23.3216C13.1862 23.1694 13.2991 23.0403 13.4408 22.9393C13.5872 22.8362 13.7509 22.7602 13.9242 22.7148C14.1049 22.6667 14.2969 22.6418 14.4955 22.6418C14.6412 22.6418 14.7628 22.6449 14.8573 22.6523V22.6523ZM13.9347 24.2814C13.9334 24.281 14.1425 24.4455 14.6145 24.4166C14.9461 24.3965 15.2401 24.3335 15.2401 24.3335V23.2792C15.2401 23.2792 14.9435 23.2306 14.6106 23.2258C14.1386 23.2201 13.9373 23.3938 13.9386 23.3934C13.7995 23.4922 13.7317 23.6388 13.7317 23.8418C13.7317 23.9717 13.7549 24.0732 13.8017 24.1441C13.831 24.1909 13.8437 24.2084 13.9347 24.2814V24.2814ZM33.5574 21.4576C33.5355 21.521 33.4231 21.8386 33.3824 21.944C33.3675 21.9843 33.343 22.0118 33.298 22.007C33.298 22.007 33.165 21.9764 33.0433 21.9764C32.9598 21.9764 32.8404 21.9869 32.7327 22.0201C32.6248 22.0533 32.5266 22.1123 32.4466 22.1921C32.3618 22.2739 32.2931 22.3889 32.2432 22.5333C32.1925 22.6785 32.1662 22.9095 32.1662 23.1414V24.8685C32.1663 24.8777 32.1645 24.8869 32.161 24.8954C32.1575 24.904 32.1524 24.9117 32.1459 24.9183C32.1394 24.9248 32.1316 24.93 32.1231 24.9336C32.1146 24.9371 32.1055 24.9389 32.0962 24.9389H31.4877C31.4784 24.9391 31.4692 24.9373 31.4605 24.9339C31.4519 24.9304 31.444 24.9253 31.4373 24.9188C31.4307 24.9123 31.4254 24.9046 31.4217 24.896C31.418 24.8874 31.4161 24.8783 31.416 24.8689V21.4108C31.416 21.3718 31.4444 21.3408 31.4833 21.3408H32.077C32.1164 21.3408 32.1443 21.3718 32.1443 21.4108V21.6934C32.2332 21.5744 32.3924 21.4694 32.5363 21.4046C32.6807 21.339 32.8421 21.2909 33.1339 21.3084C33.2857 21.3176 33.483 21.3591 33.5228 21.3744C33.5306 21.3776 33.5377 21.3822 33.5436 21.3881C33.5496 21.394 33.5543 21.401 33.5576 21.4087C33.5608 21.4165 33.5624 21.4248 33.5624 21.4332C33.5624 21.4416 33.5607 21.4498 33.5574 21.4576V21.4576ZM27.8397 19.8551C27.8558 19.8617 27.9 19.8831 27.8825 19.9356L27.7045 20.4225C27.6896 20.4593 27.68 20.4811 27.6043 20.4584C27.5042 20.4269 27.3999 20.4107 27.295 20.4103C27.2031 20.4103 27.12 20.4221 27.0465 20.4466C26.973 20.4701 26.9063 20.5113 26.8523 20.5664C26.7804 20.6359 26.7248 20.7205 26.6895 20.814C26.6042 21.059 26.5714 21.3202 26.5671 21.3368H27.3081C27.3707 21.3368 27.3904 21.3657 27.3842 21.4116L27.2976 21.8937C27.2836 21.9637 27.2202 21.9611 27.2202 21.9611H26.4564L25.9345 24.9166C25.8896 25.1817 25.8214 25.4423 25.7306 25.6953C25.6488 25.9092 25.5644 26.0654 25.4288 26.2146C25.313 26.3481 25.1658 26.4506 25.0005 26.513C24.8399 26.572 24.6448 26.6022 24.4318 26.6022C24.3303 26.6022 24.2209 26.6 24.0919 26.5694C24.0199 26.553 23.9491 26.5322 23.8797 26.5073C23.8512 26.4972 23.8281 26.4609 23.8447 26.4145C23.8604 26.3686 23.9978 25.9928 24.0162 25.9434C24.0398 25.8839 24.1002 25.9066 24.1002 25.9066C24.1413 25.9241 24.1702 25.9355 24.2248 25.9464C24.2804 25.9574 24.3548 25.967 24.4112 25.967C24.5123 25.967 24.6041 25.9547 24.6842 25.9276C24.7804 25.8966 24.8373 25.8401 24.8959 25.7649C24.9572 25.6857 25.007 25.5785 25.0582 25.4346C25.1094 25.2889 25.1562 25.0964 25.1965 24.8633L25.7162 21.9615H25.2043C25.1431 21.9615 25.1221 21.9327 25.1291 21.8863L25.2148 21.4042C25.2284 21.3342 25.2936 21.3368 25.2936 21.3368H25.819L25.8474 21.1802C25.9262 20.7147 26.0823 20.3608 26.3133 20.1285C26.5456 19.8945 26.8759 19.7764 27.295 19.7764C27.4149 19.7764 27.5207 19.7842 27.6104 19.8004C27.6984 19.8171 27.7653 19.8324 27.8397 19.8551V19.8551ZM17.4821 24.8685C17.4821 24.9079 17.455 24.9389 17.4156 24.9389H16.801C16.7616 24.9389 16.7349 24.9074 16.7349 24.8689V19.9199C16.7349 19.8818 16.7621 19.8503 16.8006 19.8503H17.4156C17.455 19.8503 17.4821 19.8818 17.4821 19.9203V24.8685V24.8685Z" fill="white"/>
</svg>
