<svg width="140" height="140" viewBox="0 0 140 140" fill="none" xmlns="http://www.w3.org/2000/svg">
<path d="M122.5 46.6667V122.459C122.505 123.225 122.36 123.985 122.072 124.695C121.783 125.404 121.358 126.05 120.82 126.596C120.282 127.141 119.642 127.576 118.937 127.874C118.231 128.172 117.474 128.328 116.707 128.333H23.2925C21.7572 128.333 20.2848 127.724 19.1986 126.639C18.1125 125.554 17.5015 124.082 17.5 122.547V17.4533C17.5 14.3208 20.1192 11.6667 23.345 11.6667H87.4825L122.5 46.6667ZM110.833 52.5H81.6667V23.3333H29.1667V116.667H110.833V52.5ZM46.6667 40.8333H64.1667V52.5H46.6667V40.8333ZM46.6667 64.1667H93.3333V75.8333H46.6667V64.1667ZM46.6667 87.5H93.3333V99.1667H46.6667V87.5Z" fill="#335FE6"/>
</svg>
